DBRep_DrawableShape

CASCADE Topology V1, (c) Matra-Datavision
Locations 0
Curve2ds 18
1 0 1.5 1 0 
2 0 0 1 0 -0 1 4
1 6.2831853071795862 -0 0 1 
1 0 -0 0 1 
1 0 0 1 0 
2 0 0 1 0 -0 1 4
1 0 90.5 1 0 
2 0 0 1 0 -0 1 2
1 0 1.5 1 0 
2 0 0 1 0 -0 1 2
1 6.2831853071795862 -0 0 1 
1 0 -0 0 1 
1 0 1.5 1 0 
2 0 0 1 0 -0 1 4
1 6.2831853071795862 -0 0 1 
1 0 -0 0 1 
1 0 0 1 0 
2 0 0 1 0 -0 1 4
Curves 9
2 65 46 18 0 1 0 0 -0 1 1 0 -0 4
1 65 44.5 22 0 1 0 
2 65 44.5 18 0 1 0 0 -0 1 1 0 -0 4
2 65 44.5 18 0 1 0 0 -0 1 1 0 -0 2
2 65 -44.5 18 0 1 0 0 -0 1 1 0 -0 2
1 65 -46 20 0 1 0 
2 65 -44.5 18 0 1 0 0 -0 1 1 0 -0 4
1 65 -46 22 0 1 0 
2 65 -46 18 0 1 0 0 -0 1 1 0 -0 4
Polygon3D 0
PolygonOnTriangulations 0
Surfaces 7
2 65 44.5 18 0 1 0 0 -0 1 1 0 -0 4
1 65 46 18 0 1 0 0 -0 1 1 0 -0 
1 65 44.5 18 0 1 0 0 -0 1 1 0 -0 
2 65 -46 18 0 1 0 0 -0 1 1 0 -0 2
1 65 -44.5 18 0 1 0 0 -0 1 1 0 -0 
2 65 -46 18 0 1 0 0 -0 1 1 0 -0 4
1 65 -46 18 0 1 0 0 -0 1 1 0 -0 
Triangulations 0

TShapes 34
Ve
1e-07
65 46 22
0 0

0101101
*
Ed
 1e-07 1 1 0
1  1 0 0 6.28318530717959
2  1 1 0 0 6.28318530717959
2  2 2 0 0 6.28318530717959
0

0101000
+34 0 -34 0 *
Ve
1e-07
65 44.5 22
0 0

0101101
*
Ed
 1e-07 1 1 0
1  2 0 0 1.5
3  3 4CN 1 0 0 1.5
0

0101000
-34 0 +32 0 *
Ed
 1e-07 1 1 0
1  3 0 0 6.28318530717959
2  5 1 0 0 6.28318530717959
2  6 3 0 0 6.28318530717959
0

0101000
+32 0 -32 0 *
Wi

0101100
-33 0 +31 0 +30 0 -31 0 *
Fa
0  1e-07 1 0

0111000
+29 0 *
Wi

0101100
+30 0 *
Ve
1e-07
65 44.5 20
0 0

0101101
*
Ed
 1e-07 1 1 0
1  4 0 0 6.28318530717959
2  7 4 0 0 6.28318530717959
2  8 3 0 0 6.28318530717959
0

0101000
+26 0 -26 0 *
Wi

0101100
-25 0 *
Fa
0  1e-07 3 0

0101000
+27 0 +24 0 *
Ve
1e-07
65 -44.5 20
0 0

0101101
*
Ed
 1e-07 1 1 0
1  5 0 0 6.28318530717959
2  9 4 0 0 6.28318530717959
2  10 5 0 0 6.28318530717959
0

0101000
+22 0 -22 0 *
Ed
 1e-07 1 1 0
1  6 0 1.5 90.5
3  11 12CN 4 0 1.5 90.5
0

0101000
+22 0 -26 0 *
Wi

0101100
+21 0 -20 0 -25 0 +20 0 *
Fa
0  1e-07 4 0

0101000
+19 0 *
Ve
1e-07
65 -44.5 22
0 0

0101101
*
Ed
 1e-07 1 1 0
1  7 0 0 6.28318530717959
2  13 6 0 0 6.28318530717959
2  14 5 0 0 6.28318530717959
0

0101000
+17 0 -17 0 *
Wi

0101100
+16 0 *
Wi

0101100
-21 0 *
Fa
0  1e-07 5 0

0101000
+15 0 +14 0 *
Ve
1e-07
65 -46 22
0 0

0101101
*
Ed
 1e-07 1 1 0
1  8 0 0 1.5
3  15 16CN 6 0 0 1.5
0

0101000
-17 0 +12 0 *
Ed
 1e-07 1 1 0
1  9 0 0 6.28318530717959
2  17 6 0 0 6.28318530717959
2  18 7 0 0 6.28318530717959
0

0101000
+12 0 -12 0 *
Wi

0101100
-16 0 +11 0 +10 0 -11 0 *
Fa
0  1e-07 6 0

0111000
+9 0 *
Wi

0101100
+33 0 *
Fa
0  1e-07 2 0

0101000
+7 0 *
Wi

0101100
-10 0 *
Fa
0  1e-07 7 0

0101000
-5 0 *
Sh

0101100
+28 0 -23 0 +18 0 +13 0 +8 0 +6 0 -4 0 *
So

0100000
+3 0 *
Co

1100000
+2 0 *

+1 0 