DBRep_DrawableShape

CASCADE Topology V1, (c) Matra-Datavision
Locations 1
1
              1               0               0             -41 
              0               1               0             -18 
              0               0               1              12 
Curve2ds 104
1 0 -1.9999999999999996 1 0 
1 0 0 0 1 
1 1.9999999999999996 0 0 -1 
1 0 0 0 1 
1 10 0 0 -1 
1 0 0 0 1 
1 0 -34 1 0 
1 0 0 0 1 
1 0 2 1 0 
1 0 0 1 0 
1 0 10 1 0 
1 0 0 1 0 
1 1.5707963267948966 0 0 1 
1 0 1.9999999999999993 1 0 
8 4.7123889803846897 6.2831853071795862
1 6.2831853071795862 1.9999999999999993 -1 -0 
8 4.7123889803846897 6.2831853071795862
1 0 -6.2831853071795862 0 1 
1 1.5707963267948966 0 0 1 
1 1.9999999999999993 0 0 1 
8 4.7123889803846897 6.2831853071795862
1 6.2831853071795862 34 -1 -0 
8 4.7123889803846897 6.2831853071795862
1 0 -6.2831853071795862 0 1 
8 4.7123889803846897 6.2831853071795862
1 6.2831853071795862 1.9999999999999993 -1 -0 
8 4.7123889803846897 6.2831853071795862
1 0 -6.2831853071795862 0 1 
1 1.5707963267948966 0 0 1 
1 1.9999999999999993 0 0 1 
1 0 34 1 0 
1 0 0 1 0 
1 0 2 1 0 
1 0 0 1 0 
8 4.7123889803846897 6.2831853071795862
1 6.2831853071795862 10 -1 -0 
8 4.7123889803846897 6.2831853071795862
1 0 -6.2831853071795862 0 1 
1 1.5707963267948966 0 0 1 
1 0 1.9999999999999993 1 0 
1 0 -1.5707963267948966 1 0 
8 4.7123889803846897 6.2831853071795862
1 1.5707963267948966 -6.2831853071795862 0 1 
8 4.7123889803846897 6.2831853071795862
1 6.2831853071795862 1.9999999999999993 -1 -0 
1 0 -1.5707963267948966 1 0 
8 4.7123889803846897 6.2831853071795862
1 1.5707963267948966 -6.2831853071795862 0 1 
8 4.7123889803846897 6.2831853071795862
1 6.2831853071795862 1.9999999999999993 -1 -0 
1 1.9999999999999996 0 0 1 
1 0 0 0 1 
1 10 0 0 1 
1 0 0 0 1 
1 0 48 1 0 
1 1.5707963267948966 0 0 1 
1 0 1.9999999999999993 1 0 
1 1.5707963267948966 0 0 1 
1 0 34 1 0 
1 1.5707963267948966 0 0 1 
1 48 0 0 1 
1 1.5707963267948966 0 0 1 
1 0 -1.5707963267948966 1 0 
8 4.7123889803846897 6.2831853071795862
1 1.5707963267948966 -6.2831853071795862 0 1 
8 4.7123889803846897 6.2831853071795862
1 6.2831853071795862 1.9999999999999993 -1 -0 
1 0 1.9999999999999993 1 0 
1 1.5707963267948966 0 0 1 
1 0 34 1 0 
1 1.5707963267948966 0 0 1 
1 48 0 0 1 
1 1.5707963267948966 0 0 1 
1 0 -1.5707963267948966 1 0 
8 4.7123889803846897 6.2831853071795862
1 1.5707963267948966 -6.2831853071795862 0 1 
8 4.7123889803846897 6.2831853071795862
1 -4.7123889803846897 1.9999999999999993 1 0 
1 1.9999999999999996 0 0 1 
1 0 0 0 1 
1 10 0 0 1 
1 0 0 0 1 
1 0 48 1 0 
1 1.5707963267948966 0 0 1 
8 4.7123889803846897 6.2831853071795862
1 6.2831853071795862 48 -1 -0 
8 4.7123889803846897 6.2831853071795862
1 1.5707963267948966 -6.2831853071795862 0 1 
8 4.7123889803846897 6.2831853071795862
1 6.2831853071795862 48 -1 -0 
8 4.7123889803846897 6.2831853071795862
1 1.5707963267948966 -6.2831853071795862 0 1 
1 0 0 0 1 
1 0 -1.9999999999999996 1 0 
1 0 2 1 0 
1 0 0 1 0 
1 0 10 1 0 
1 0 0 1 0 
8 4.7123889803846897 6.2831853071795862
1 6.2831853071795862 48 -1 -0 
8 4.7123889803846897 6.2831853071795862
1 1.5707963267948966 -6.2831853071795862 0 1 
8 4.7123889803846897 6.2831853071795862
1 6.2831853071795862 1.9999999999999993 -1 -0 
8 4.7123889803846897 6.2831853071795862
1 0 -6.2831853071795862 0 1 
1 0 0 0 1 
1 1.9999999999999996 0 0 -1 
8 4.7123889803846897 6.2831853071795862
1 6.2831853071795862 34 -1 -0 
8 4.7123889803846897 6.2831853071795862
1 0 -6.2831853071795862 0 1 
8 4.7123889803846897 6.2831853071795862
1 -4.7123889803846897 48 1 0 
8 4.7123889803846897 6.2831853071795862
1 1.5707963267948966 -6.2831853071795862 0 1 
8 4.7123889803846897 6.2831853071795862
1 6.2831853071795862 1.9999999999999993 -1 -0 
8 4.7123889803846897 6.2831853071795862
1 0 -6.2831853071795862 0 1 
1 0 0 0 1 
1 10 0 0 -1 
1 0 34 1 0 
1 0 0 1 0 
1 0 0 0 1 
1 0 -34 1 0 
1 0 2 1 0 
1 0 0 1 0 
8 4.7123889803846897 6.2831853071795862
1 6.2831853071795862 10 -1 -0 
8 4.7123889803846897 6.2831853071795862
1 0 -6.2831853071795862 0 1 
1 0 -1.5707963267948966 1 0 
1 0 -1.5707963267948966 1 0 
1 0 -1.5707963267948966 1 0 
1 0 -1.5707963267948966 1 0 
Curves 48
1 -4.4408920985006262e-16 1.9999999999999996 0 0 0 1 
1 -4.4408920985006262e-16 0 1.9999999999999996 -0 1 0 
1 -4.4408920985006262e-16 0 10 -0 1 0 
1 -4.4408920985006262e-16 34 0 0 0 1 
2 1.9999999999999996 1.9999999999999996 2 0 0 1 -1 0 0 0 -1 0 2
2 1.9999999999999996 1.9999999999999996 10 0 0 1 -1 0 0 0 -1 0 2
1 1.9999999999999993 -4.4408920985006262e-16 0 0 0 1 
2 1.9999999999999996 1.9999999999999996 2 0 1 -0 -1 0 0 0 0 1 2
1 1.9999999999999993 0 -4.4408920985006262e-16 -0 1 0 
2 1.9999999999999996 34 2 0 1 -0 -1 0 0 0 0 1 2
2 1.9999999999999996 1.9999999999999996 10 0 -1 0 -1 0 0 -0 -0 -1 2
1 1.9999999999999993 0 12 -0 1 0 
2 1.9999999999999996 34 10 -0 1 0 -1 -0 0 0 0 1 2
2 1.9999999999999996 34 2 -0 -0 -1 -1 0 0 0 1 -0 2
2 1.9999999999999996 34 10 0 0 1 -1 -0 0 0 -1 0 2
1 1.9999999999999993 36 0 0 0 1 
2 1.9999999999999996 1.9999999999999996 2 -1 6.123233995736766e-17 0 -6.123233995736766e-17 -1 0 0 0 1 2
2 1.9999999999999996 1.9999999999999996 10 1 -6.123233995736766e-17 0 -6.123233995736766e-17 -1 0 0 -0 -1 2
1 0 -4.4408920985006262e-16 1.9999999999999996 1 0 -0 
1 0 -4.4408920985006262e-16 10 1 0 -0 
1 48 -4.4408920985006262e-16 0 0 0 1 
1 0 1.9999999999999993 -4.4408920985006262e-16 1 0 -0 
1 0 34 -4.4408920985006262e-16 1 0 -0 
1 48 0 -4.4408920985006262e-16 -0 1 0 
2 1.9999999999999996 34 2 1 6.123233995736766e-17 -0 -6.123233995736766e-17 1 0 0 0 1 2
1 0 1.9999999999999993 12 1 0 -0 
1 0 34 12 1 0 -0 
1 48 0 12 -0 1 0 
2 1.9999999999999996 34 10 1 0 6.123233995736766e-17 -6.123233995736766e-17 -0 1 0 -1 0 2
1 0 36 1.9999999999999996 1 0 -0 
1 0 36 10 1 0 -0 
1 48 36 0 0 0 1 
2 48 1.9999999999999996 2 -1 -6.123233995736766e-17 0 6.123233995736766e-17 -1 -0 0 0 1 2
2 48 1.9999999999999996 10 1 6.123233995736766e-17 -0 6.123233995736766e-17 -1 0 0 -0 -1 2
1 50 1.9999999999999996 0 0 0 1 
2 48 1.9999999999999996 2 -0 -0 -1 1 0 -0 0 -1 0 2
2 48 1.9999999999999996 10 -0 -0 -1 1 0 0 0 -1 0 2
2 48 34 2 1 -6.123233995736766e-17 0 6.123233995736766e-17 1 0 -0 0 1 2
2 48 1.9999999999999996 2 0 -1 0 1 0 0 -0 0 1 2
1 50 0 1.9999999999999996 -0 1 0 
2 48 34 2 0 -1 0 1 0 0 -0 0 1 2
2 48 34 10 1 0 -6.123233995736766e-17 6.123233995736766e-17 0 1 0 -1 0 2
2 48 1.9999999999999996 10 0 1 0 1 0 0 0 0 -1 2
1 50 0 10 -0 1 0 
2 48 34 10 0 -1 -0 1 0 0 0 -0 1 2
1 50 34 0 0 0 1 
2 48 34 2 0 0 1 1 0 -0 -0 1 0 2
2 48 34 10 0 0 -1 1 0 0 0 -1 0 2
Polygon3D 0
PolygonOnTriangulations 0
Surfaces 26
1 0 0 0 1 0 -0 0 0 1 0 -1 0 
2 1.9999999999999996 1.9999999999999996 0 0 0 1 -1 -0 0 0 -1 0 2
2 1.9999999999999996 0 1.9999999999999996 -0 1 0 -1 -0 0 -0 -0 -1 2
2 1.9999999999999996 0 10 -0 1 0 -1 -0 0 0 0 1 2
2 1.9999999999999996 34 0 0 0 1 -1 -0 0 -0 1 -0 2
4 1.9999999999999996 1.9999999999999996 2 0 0 1 -1 0 0 0 -1 0 2
4 1.9999999999999996 1.9999999999999996 10 -0 -0 -1 -1 0 0 -0 -1 0 2
1 0 0 0 -0 1 0 0 0 1 1 0 -0 
1 0 0 0 0 0 1 1 0 -0 -0 1 0 
4 1.9999999999999996 34 2 0 0 1 -1 0 0 -0 1 -0 2
1 0 0 12 0 0 1 1 0 -0 -0 1 0 
4 1.9999999999999996 34 10 0 -1 -0 -1 -0 0 0 -0 1 2
1 0 36 0 -0 1 0 0 0 1 1 0 -0 
2 0 1.9999999999999996 1.9999999999999996 1 0 -0 0 -1 0 0 -0 -1 2
2 0 1.9999999999999996 10 1 0 -0 0 -1 0 -0 0 1 2
2 48 1.9999999999999996 0 0 0 1 1 0 -0 0 -1 -0 2
2 0 34 1.9999999999999996 1 0 -0 0 1 0 -0 0 -1 2
2 48 0 1.9999999999999996 -0 1 0 1 0 -0 -0 0 -1 2
2 0 34 10 1 0 -0 0 1 0 0 -0 1 2
2 48 0 10 -0 1 0 1 0 -0 0 -0 1 2
2 48 34 0 0 0 1 1 0 -0 -0 1 0 2
4 48 1.9999999999999996 2 0 0 1 1 0 -0 0 -1 -0 2
4 48 1.9999999999999996 10 -0 -0 -1 1 0 0 0 -1 0 2
1 50 0 0 1 0 -0 0 0 1 0 -1 0 
4 48 34 2 0 0 1 1 0 -0 -0 1 0 2
4 48 34 10 0 -1 -0 1 0 0 0 -0 1 2
Triangulations 0

TShapes 135
Ve
1e-07
-4.44089209850063e-16 2 2
0 0

0101101
*
Ve
1e-07
-4.44089209850063e-16 2 10
0 0

0101101
*
Ed
 1e-07 1 1 0
1  1 0 2 10
2  1 1 0 2 10
2  2 2 0 2 10
4 G1 1 0 2 0
0

0101000
+135 0 -134 0 *
Ve
1e-07
-4.44089209850063e-16 34 2
0 0

0101101
*
Ed
 1e-07 1 1 0
1  2 0 2 34
2  3 1 0 2 34
2  4 3 0 2 34
4 G1 1 0 3 0
0

0101000
+135 0 -132 0 *
Ve
1e-07
-4.44089209850063e-16 34 10
0 0

0101101
*
Ed
 1e-07 1 1 0
1  3 0 2 34
2  5 1 0 2 34
2  6 4 0 2 34
4 G1 1 0 4 0
0

0101000
+134 0 -130 0 *
Ed
 1e-07 1 1 0
1  4 0 2 10
2  7 1 0 2 10
2  8 5 0 2 10
4 G1 1 0 5 0
0

0101000
+132 0 -130 0 *
Wi

0101100
-133 0 +131 0 -129 0 +128 0 *
Fa
0  1e-07 1 0

0101000
+127 0 *
Ve
1e-07
2 -4.44089209850063e-16 2
0 0

0101101
*
Ed
 1e-07 1 1 0
1  5 0 0 1.5707963267949
2  9 2 0 0 1.5707963267949
2  10 6 0 0 1.5707963267949
4 G1 2 0 6 0
0

0101000
+135 0 -125 0 *
Ve
1e-07
2 -4.44089209850063e-16 10
0 0

0101101
*
Ed
 1e-07 1 1 0
1  6 0 0 1.5707963267949
2  11 2 0 0 1.5707963267949
2  12 7 0 0 1.5707963267949
4 G1 2 0 7 0
0

0101000
+134 0 -123 0 *
Ed
 1e-07 1 1 0
1  7 0 2 10
2  13 2 0 2 10
2  14 8 0 2 10
4 G1 2 0 8 0
0

0101000
+125 0 -123 0 *
Wi

0101100
-133 0 +124 0 -122 0 +121 0 *
Fa
0  1e-07 2 0

0101000
+120 0 *
Ve
1e-07
2 2 0
0 0

0101101
*
Ed
 1e-07 1 1 0
1  8 0 4.71238898038469 6.28318530717959
2  15 3 0 4.71238898038469 6.28318530717959
2  16 6 0 4.71238898038469 6.28318530717959
4 G1 3 0 6 0
0

0101000
+118 0 -135 0 *
Ve
1e-07
2 34 0
0 0

0101101
*
Ed
 1e-07 1 1 0
1  9 0 2 34
2  17 3 0 2 34
2  18 9 0 2 34
4 G1 3 0 9 0
0

0101000
+118 0 -116 0 *
Ed
 1e-07 1 1 0
1  10 0 4.71238898038469 6.28318530717959
2  19 3 0 4.71238898038469 6.28318530717959
2  20 10 0 4.71238898038469 6.28318530717959
4 G1 3 0 10 0
0

0101000
+116 0 -132 0 *
Wi

0101100
-117 0 +115 0 -131 0 +114 0 *
Fa
0  1e-07 3 0

0101000
+113 0 *
Ve
1e-07
2 2 12
0 0

0101101
*
Ed
 1e-07 1 1 0
1  11 0 4.71238898038469 6.28318530717959
2  21 4 0 4.71238898038469 6.28318530717959
2  22 7 0 4.71238898038469 6.28318530717959
4 G1 4 0 7 0
0

0101000
+111 0 -134 0 *
Ve
1e-07
2 34 12
0 0

0101101
*
Ed
 1e-07 1 1 0
1  12 0 2 34
2  23 4 0 2 34
2  24 11 0 2 34
4 G1 4 0 11 0
0

0101000
+111 0 -109 0 *
Ed
 1e-07 1 1 0
1  13 0 0 1.5707963267949
2  25 4 0 0 1.5707963267949
2  26 12 0 0 1.5707963267949
4 G1 4 0 12 0
0

0101000
+130 0 -109 0 *
Wi

0101100
-110 0 +108 0 -129 0 -107 0 *
Fa
0  1e-07 4 0

0101000
+106 0 *
Ve
1e-07
2 36 2
0 0

0101101
*
Ed
 1e-07 1 1 0
1  14 0 0 1.5707963267949
2  27 5 0 0 1.5707963267949
2  28 10 0 0 1.5707963267949
4 G1 5 0 10 0
0

0101000
+132 0 -104 0 *
Ve
1e-07
2 36 10
0 0

0101101
*
Ed
 1e-07 1 1 0
1  15 0 4.71238898038469 6.28318530717959
2  29 5 0 4.71238898038469 6.28318530717959
2  30 12 0 4.71238898038469 6.28318530717959
4 G1 5 0 12 0
0

0101000
+102 0 -130 0 *
Ed
 1e-07 1 1 0
1  16 0 2 10
2  31 5 0 2 10
2  32 13 0 2 10
4 G1 5 0 13 0
0

0101000
+104 0 -102 0 *
Wi

0101100
-128 0 +103 0 +101 0 +100 0 *
Fa
0  1e-07 5 0

0101000
+99 0 *
Ed
 1e-07 1 1 1
2  33 6 0 0 1.5707963267949
0

0101000
+118 0 -118 0 *
Ed
 1e-07 1 1 0
1  17 0 4.71238898038469 6.28318530717959
2  34 6 0 4.71238898038469 6.28318530717959
2  35 14 0 4.71238898038469 6.28318530717959
4 G1 6 0 14 0
0

0101000
+118 0 -125 0 *
Wi

0101100
-117 0 +97 0 +96 0 -124 0 *
Fa
0  1e-07 6 0

0101000
+95 0 *
Ed
 1e-07 1 1 1
2  36 7 0 0 1.5707963267949
0

0101000
+111 0 -111 0 *
Ed
 1e-07 1 1 0
1  18 0 4.71238898038469 6.28318530717959
2  37 7 0 4.71238898038469 6.28318530717959
2  38 15 0 4.71238898038469 6.28318530717959
4 G1 7 0 15 0
0

0101000
+111 0 -123 0 *
Wi

0101100
-110 0 +93 0 +92 0 -122 0 *
Fa
0  1e-07 7 0

0101000
+91 0 *
Ve
1e-07
48 -4.44089209850063e-16 2
0 0

0101101
*
Ed
 1e-07 1 1 0
1  19 0 2 48
2  39 8 0 2 48
2  40 14 0 2 48
4 G1 8 0 14 0
0

0101000
+125 0 -89 0 *
Ve
1e-07
48 -4.44089209850063e-16 10
0 0

0101101
*
Ed
 1e-07 1 1 0
1  20 0 2 48
2  41 8 0 2 48
2  42 15 0 2 48
4 G1 8 0 15 0
0

0101000
+123 0 -87 0 *
Ed
 1e-07 1 1 0
1  21 0 2 10
2  43 8 0 2 10
2  44 16 0 2 10
4 G1 8 0 16 0
0

0101000
+89 0 -87 0 *
Wi

0101100
+121 0 -88 0 +86 0 -85 0 *
Fa
0  1e-07 8 0

0101000
+84 0 *
Ve
1e-07
48 2 0
0 0

0101101
*
Ed
 1e-07 1 1 0
1  22 0 2 48
2  45 9 0 2 48
2  46 14 0 2 48
4 G1 9 0 14 0
0

0101000
+118 0 -82 0 *
Ve
1e-07
48 34 0
0 0

0101101
*
Ed
 1e-07 1 1 0
1  23 0 2 48
2  47 9 0 2 48
2  48 17 0 2 48
4 G1 9 0 17 0
0

0101000
+116 0 -80 0 *
Ed
 1e-07 1 1 0
1  24 0 2 34
2  49 9 0 2 34
2  50 18 0 2 34
4 G1 9 0 18 0
0

0101000
+82 0 -80 0 *
Wi

0101100
-115 0 +81 0 -79 0 +78 0 *
Fa
0  1e-07 9 0

0101000
+77 0 *
Ed
 1e-07 1 1 1
2  51 10 0 0 1.5707963267949
0

0101000
+116 0 -116 0 *
Ed
 1e-07 1 1 0
1  25 0 4.71238898038469 6.28318530717959
2  52 10 0 4.71238898038469 6.28318530717959
2  53 17 0 4.71238898038469 6.28318530717959
4 G1 10 0 17 0
0

0101000
+116 0 -104 0 *
Wi

0101100
-114 0 +75 0 +74 0 -103 0 *
Fa
0  1e-07 10 0

0101000
+73 0 *
Ve
1e-07
48 2 12
0 0

0101101
*
Ed
 1e-07 1 1 0
1  26 0 2 48
2  54 11 0 2 48
2  55 15 0 2 48
4 G1 11 0 15 0
0

0101000
+111 0 -71 0 *
Ve
1e-07
48 34 12
0 0

0101101
*
Ed
 1e-07 1 1 0
1  27 0 2 48
2  56 11 0 2 48
2  57 19 0 2 48
4 G1 11 0 19 0
0

0101000
+109 0 -69 0 *
Ed
 1e-07 1 1 0
1  28 0 2 34
2  58 11 0 2 34
2  59 20 0 2 34
4 G1 11 0 20 0
0

0101000
+71 0 -69 0 *
Wi

0101100
-108 0 +70 0 -68 0 +67 0 *
Fa
0  1e-07 11 0

0101000
+66 0 *
Ed
 1e-07 1 1 1
2  60 12 0 0 1.5707963267949
0

0101000
+102 0 -102 0 *
Ed
 1e-07 1 1 0
1  29 0 4.71238898038469 6.28318530717959
2  61 12 0 4.71238898038469 6.28318530717959
2  62 19 0 4.71238898038469 6.28318530717959
4 G1 12 0 19 0
0

0101000
+102 0 -109 0 *
Wi

0101100
-101 0 +64 0 +63 0 -107 0 *
Fa
0  1e-07 12 0

0101000
+62 0 *
Ve
1e-07
48 36 2
0 0

0101101
*
Ed
 1e-07 1 1 0
1  30 0 2 48
2  63 13 0 2 48
2  64 17 0 2 48
4 G1 13 0 17 0
0

0101000
+104 0 -60 0 *
Ve
1e-07
48 36 10
0 0

0101101
*
Ed
 1e-07 1 1 0
1  31 0 2 48
2  65 13 0 2 48
2  66 19 0 2 48
4 G1 13 0 19 0
0

0101000
+102 0 -58 0 *
Ed
 1e-07 1 1 0
1  32 0 2 10
2  67 13 0 2 10
2  68 21 0 2 10
4 G1 13 0 21 0
0

0101000
+60 0 -58 0 *
Wi

0101100
+100 0 -59 0 +57 0 -56 0 *
Fa
0  1e-07 13 0

0101000
+55 0 *
Ed
 1e-07 1 1 0
1  33 0 4.71238898038469 6.28318530717959
2  69 14 0 4.71238898038469 6.28318530717959
2  70 22 0 4.71238898038469 6.28318530717959
4 G1 14 0 22 0
0

0101000
+82 0 -89 0 *
Wi

0101100
-96 0 +81 0 -88 0 +53 0 *
Fa
0  1e-07 14 0

0101000
+52 0 *
Ed
 1e-07 1 1 0
1  34 0 4.71238898038469 6.28318530717959
2  71 15 0 4.71238898038469 6.28318530717959
2  72 23 0 4.71238898038469 6.28318530717959
4 G1 15 0 23 0
0

0101000
+71 0 -87 0 *
Wi

0101100
-92 0 +70 0 -86 0 +50 0 *
Fa
0  1e-07 15 0

0101000
+49 0 *
Ve
1e-07
50 2 2
0 0

0101101
*
Ve
1e-07
50 2 10
0 0

0101101
*
Ed
 1e-07 1 1 0
1  35 0 2 10
2  73 16 0 2 10
2  74 24 0 2 10
4 G1 16 0 24 0
0

0101000
+47 0 -46 0 *
Ed
 1e-07 1 1 0
1  36 0 0 1.5707963267949
2  75 16 0 0 1.5707963267949
2  76 22 0 0 1.5707963267949
4 G1 16 0 22 0
0

0101000
+47 0 -89 0 *
Ed
 1e-07 1 1 0
1  37 0 0 1.5707963267949
2  77 16 0 0 1.5707963267949
2  78 23 0 0 1.5707963267949
4 G1 16 0 23 0
0

0101000
+46 0 -87 0 *
Wi

0101100
-45 0 +44 0 -43 0 +85 0 *
Fa
0  1e-07 16 0

0101000
+42 0 *
Ed
 1e-07 1 1 0
1  38 0 4.71238898038469 6.28318530717959
2  79 17 0 4.71238898038469 6.28318530717959
2  80 25 0 4.71238898038469 6.28318530717959
4 G1 17 0 25 0
0

0101000
+80 0 -60 0 *
Wi

0101100
-74 0 +79 0 -59 0 +40 0 *
Fa
0  1e-07 17 0

0101000
+39 0 *
Ed
 1e-07 1 1 0
1  39 0 4.71238898038469 6.28318530717959
2  81 18 0 4.71238898038469 6.28318530717959
2  82 22 0 4.71238898038469 6.28318530717959
4 G1 18 0 22 0
0

0101000
+82 0 -47 0 *
Ve
1e-07
50 34 2
0 0

0101101
*
Ed
 1e-07 1 1 0
1  40 0 2 34
2  83 18 0 2 34
2  84 24 0 2 34
4 G1 18 0 24 0
0

0101000
+47 0 -36 0 *
Ed
 1e-07 1 1 0
1  41 0 4.71238898038469 6.28318530717959
2  85 18 0 4.71238898038469 6.28318530717959
2  86 25 0 4.71238898038469 6.28318530717959
4 G1 18 0 25 0
0

0101000
+80 0 -36 0 *
Wi

0101100
-37 0 +78 0 -35 0 +34 0 *
Fa
0  1e-07 18 0

0101000
+33 0 *
Ed
 1e-07 1 1 0
1  42 0 4.71238898038469 6.28318530717959
2  87 19 0 4.71238898038469 6.28318530717959
2  88 26 0 4.71238898038469 6.28318530717959
4 G1 19 0 26 0
0

0101000
+58 0 -69 0 *
Wi

0101100
+63 0 -57 0 +68 0 -31 0 *
Fa
0  1e-07 19 0

0101000
+30 0 *
Ed
 1e-07 1 1 0
1  43 0 4.71238898038469 6.28318530717959
2  89 20 0 4.71238898038469 6.28318530717959
2  90 23 0 4.71238898038469 6.28318530717959
4 G1 20 0 23 0
0

0101000
+71 0 -46 0 *
Ve
1e-07
50 34 10
0 0

0101101
*
Ed
 1e-07 1 1 0
1  44 0 2 34
2  91 20 0 2 34
2  92 24 0 2 34
4 G1 20 0 24 0
0

0101000
+46 0 -27 0 *
Ed
 1e-07 1 1 0
1  45 0 0 1.5707963267949
2  93 20 0 0 1.5707963267949
2  94 26 0 0 1.5707963267949
4 G1 20 0 26 0
0

0101000
+27 0 -69 0 *
Wi

0101100
-28 0 +67 0 -26 0 -25 0 *
Fa
0  1e-07 20 0

0101000
+24 0 *
Ed
 1e-07 1 1 0
1  46 0 2 10
2  95 21 0 2 10
2  96 24 0 2 10
4 G1 21 0 24 0
0

0101000
+36 0 -27 0 *
Ed
 1e-07 1 1 0
1  47 0 0 1.5707963267949
2  97 21 0 0 1.5707963267949
2  98 25 0 0 1.5707963267949
4 G1 21 0 25 0
0

0101000
+36 0 -60 0 *
Ed
 1e-07 1 1 0
1  48 0 4.71238898038469 6.28318530717959
2  99 21 0 4.71238898038469 6.28318530717959
2  100 26 0 4.71238898038469 6.28318530717959
4 G1 21 0 26 0
0

0101000
+58 0 -27 0 *
Wi

0101100
-22 0 +21 0 +20 0 +56 0 *
Fa
0  1e-07 21 0

0101000
+19 0 *
Ed
 1e-07 1 1 1
2  101 22 0 0 1.5707963267949
0

0101000
+82 0 -82 0 *
Wi

0101100
-37 0 +17 0 +53 0 -44 0 *
Fa
0  1e-07 22 0

0101000
+16 0 *
Ed
 1e-07 1 1 1
2  102 23 0 0 1.5707963267949
0

0101000
+71 0 -71 0 *
Wi

0101100
-28 0 +14 0 +50 0 -43 0 *
Fa
0  1e-07 23 0

0101000
+13 0 *
Wi

0101100
-45 0 +35 0 -26 0 +22 0 *
Fa
0  1e-07 24 0

0101000
+11 0 *
Ed
 1e-07 1 1 1
2  103 25 0 0 1.5707963267949
0

0101000
+80 0 -80 0 *
Wi

0101100
-34 0 +9 0 +40 0 -21 0 *
Fa
0  1e-07 25 0

0101000
+8 0 *
Ed
 1e-07 1 1 1
2  104 26 0 0 1.5707963267949
0

0101000
+58 0 -58 0 *
Wi

0101100
-20 0 +6 0 +31 0 -25 0 *
Fa
0  1e-07 26 0

0101000
+5 0 *
Sh

0101100
-126 0 +119 0 -112 0 +105 0 -98 0 +94 0 -90 0 -83 0 -76 0 -72 0 
+65 0 -61 0 +54 0 +51 0 -48 0 -41 0 -38 0 +32 0 +29 0 -23 0 
+18 0 -15 0 +12 0 +10 0 +7 0 +4 0 *
So

0100000
+3 0 *
Co

1100000
+2 0 *

+1 1 