DBRep_DrawableShape

CASCADE Topology V1, (c) Matra-Datavision
Locations 2
1
              1               0               0             -80 
              0               1               0             -30 
              0               0               1               8 
2  1 -1 0
Curve2ds 296
1 0 0 0 1 
1 0 3 1 0 
1 36 51 1 0 
1 0 -3 1 0 
1 0 56 1 0 
1 10 0 0 1 
1 0 3 1 0 
1 0 -3 1 0 
1 0 0 1 0 
1 4 0 0 1 
1 0 60 1 0 
1 0.21276595744680904 -80 0 1 
1 0 0 0 -1 
1 0 0 0 1 
1 9 52 0 1 
1 0 0 0 1 
1 0 0 1 0 
1 9 52 1 0 
1 0 0 0 -1 
1 12 0 0 1 
1 21 52 0 1 
1 0.21276595744680904 -80 0 1 
1 0 0 0 -1 
1 0 0 0 1 
1 139 52 0 1 
1 0 0 0 1 
1 0 0 1 0 
1 139 52 1 0 
1 0 0 0 -1 
1 12 0 0 1 
1 151 52 0 1 
1 0.21276595744680904 -80 0 1 
1 4 0 0 -1 
1 160 0 0 1 
1 4 0 0 1 
1 0 0 1 0 
1 -0.21276595744680904 -80 0 1 
1 0 0 0 -1 
1 12 0 0 1 
1 151 0 0 1 
1 0 0 0 1 
1 0 8 1 0 
1 139 8 1 0 
1 0 0 0 -1 
1 0 0 0 1 
1 139 0 0 1 
1 -0.21276595744680904 -80 0 1 
1 0 0 0 -1 
1 12 0 0 1 
1 21 0 0 1 
1 0 0 0 1 
1 0 8 1 0 
1 9 8 1 0 
1 0 0 0 -1 
1 0 0 0 1 
1 9 0 0 1 
1 -0.21276595744680904 -80 0 1 
1 4 0 0 -1 
1 0 0 0 1 
8 -18.049999999999997 -4.4500000000000028
1 -4.4500000000000028 16 -1 0 
8 -18.049999999999997 -4.4500000000000028
1 5 4.4500000000000028 0 -1 
8 4.375 11.875
1 3.5 4.375 0 1 
8 4.375 11.875
1 5 4.375 0 -1 
8 -24.75 -1.75
1 1.75 8.75 -1 0 
8 -24.75 -1.75
1 5 -1.75 0 -1 
8 4.375 11.875
1 26.5 4.375 0 1 
8 4.375 11.875
1 5 4.375 0 -1 
8 -24.75 -1.75
1 1.75 16.25 -1 0 
8 -24.75 -1.75
1 5 -1.75 0 -1 
8 8 36
1 13.599999999999994 8 0 1 
8 8 36
1 5 8 0 -1 
8 -18.049999999999997 -4.4500000000000028
1 -4.4500000000000028 44 -1 0 
8 -18.049999999999997 -4.4500000000000028
1 5 4.4500000000000028 0 -1 
1 0 0 1 0 
2 0 0 1 0 -0 1 2
2 113 19 1 0 -0 1 2
1 0 0 1 0 
2 0 0 1 0 -0 1 2
2 135 19 1 0 -0 1 2
1 0 0 0 1 
1 0 0 1 0 
1 36 9 1 0 
1 92 48 0 1 
1 36 9 0 1 
1 0 0 1 0 
2 0 0 1 0 -0 1 2
2 113 41 1 0 -0 1 2
1 0 0 1 0 
2 0 0 1 0 -0 1 2
2 135 41 1 0 -0 1 2
1 0 0 1 0 
1 0 56 1 0 
1 10 0 0 1 
1 0 0 1 0 
1 10 0 0 1 
1 0 0 1 0 
1 10 0 0 -1 
1 0 0 0 1 
1 10 0 0 1 
1 0 3 1 0 
1 10 0 0 -1 
1 3 0 0 1 
1 0 0 1 0 
1 0 0 1 0 
1 0 0 0 1 
1 0 60 1 0 
1 -3.787234042553191 -80 0 1 
1 0 -60 1 0 
1 0 160 1 0 
1 -3.787234042553191 80 1 0 
1 0 -60 1 0 
1 0 0 1 0 
1 -3.787234042553191 -80 1 0 
1 0 -8 1 0 
1 0 12 1 0 
1 0.21276595744680904 71 1 0 
1 0 -8 1 0 
1 0 0 1 0 
1 0.21276595744680904 -71 1 0 
1 12 0 0 1 
1 0 8 1 0 
1 12.212765957446809 59 0 1 
1 12 0 0 1 
1 0 8 1 0 
1 12.212765957446809 -71 0 1 
1 0 -8 1 0 
1 0 0 1 0 
1 0.21276595744680904 59 1 0 
1 0 -8 1 0 
1 0 12 1 0 
1 0.21276595744680904 -59 1 0 
2 6.212765957446809 -65 1 0 -0 1 2.1499999999999999
1 0 9 1 0 
2 6.212765957446809 65 1 0 -0 1 2.1499999999999999
1 0 9 1 0 
1 0 0 1 0 
1 0 0 1 0 
1 12 0 0 -1 
1 0 0 0 1 
1 0 0 1 0 
1 0 12 1 0 
1 12 0 0 1 
1 0 0 1 0 
2 6 6 1 0 -0 1 2.1499999999999999
1 0 1 1 0 
1 12 0 0 -1 
1 12 0 0 1 
1 0 0 1 0 
1 0 0 1 0 
1 12 0 0 -1 
1 0 0 0 1 
1 0 0 1 0 
1 0 12 1 0 
1 12 0 0 1 
1 0 0 1 0 
2 6 6 1 0 -0 1 2.1499999999999999
1 0 1 1 0 
1 12 0 0 -1 
1 12 0 0 1 
1 0 0 1 0 
1 0 160 1 0 
1 3.787234042553191 80 -1 0 
1 0 0 0 -1 
1 160 0 0 1 
1 0 0 0 1 
1 0 0 1 0 
1 3.787234042553191 -80 0 1 
1 0 0 1 0 
1 0 0 1 0 
1 3.787234042553191 -80 -1 0 
1 0 0 1 0 
1 0 12 1 0 
1 -0.21276595744680904 71 -1 0 
1 0 0 1 0 
1 0 0 1 0 
1 -0.21276595744680904 -71 -1 0 
1 12 0 0 1 
1 0 0 1 0 
1 -12.212765957446809 59 0 1 
1 12 0 0 1 
1 0 0 1 0 
1 -12.212765957446809 -71 0 1 
1 0 0 1 0 
1 0 0 1 0 
1 -0.21276595744680904 59 -1 0 
1 0 0 1 0 
1 0 12 1 0 
1 -0.21276595744680904 -59 -1 0 
2 -6.212765957446809 -65 -1 0 0 1 2.1499999999999999
1 0 1 1 0 
2 -6.212765957446809 65 -1 0 0 1 2.1499999999999999
1 0 1 1 0 
1 12 0 0 -1 
1 12 0 0 1 
1 0 -8 1 0 
1 0 12 1 0 
1 0 -8 1 0 
1 0 0 1 0 
1 12 0 0 1 
1 0 8 1 0 
2 6 6 1 0 -0 1 2.1499999999999999
1 0 9 1 0 
1 12 0 0 -1 
1 0 0 0 1 
1 12 0 0 -1 
1 12 0 0 1 
1 0 -8 1 0 
1 0 12 1 0 
1 0 -8 1 0 
1 0 0 1 0 
1 12 0 0 1 
1 0 8 1 0 
2 6 6 1 0 -0 1 2.1499999999999999
1 0 9 1 0 
1 12 0 0 -1 
1 0 0 0 1 
8 0.5 4.5
1 -0.5 -16 1 0 
8 0.5 4.5
1 0.5 8.9000000000000057 1 0 
1 0 0 0 -1 
1 0 0 0 1 
8 -5 -1
1 0 12.400000000000006 -1 0 
8 -5 -1
1 0 -7.25 -1 -0 
8 -18.049999999999997 -4.4500000000000028
1 -4.4500000000000028 16 -1 0 
8 -18.049999999999997 -4.4500000000000028
1 1 4.4500000000000028 0 -1 
1 0 0 1 0 
1 0 0 1 0 
8 4.375 11.875
1 3.5 4.375 0 1 
8 4.375 11.875
1 1 4.375 0 -1 
1 0 0 1 0 
1 0 23 1 0 
8 -24.75 -1.75
1 1.75 8.75 -1 0 
8 -24.75 -1.75
1 1 -1.75 0 -1 
1 0 -7.5 1 0 
1 0 23 1 0 
8 4.375 11.875
1 26.5 4.375 0 1 
8 4.375 11.875
1 1 4.375 0 -1 
8 1 5
1 0 -0.25 1 0 
8 1 5
1 0 10.099999999999994 1 0 
8 -24.75 -1.75
1 1.75 16.25 -1 0 
8 -24.75 -1.75
1 1 -1.75 0 -1 
1 0 -28 1 0 
1 0 22.5 1 0 
8 8 36
1 13.599999999999994 8 0 1 
8 8 36
1 1 8 0 -1 
8 0.5 4.5
1 -0.5 -44 1 0 
8 0.5 4.5
1 0.5 8.9000000000000057 1 0 
8 -18.049999999999997 -4.4500000000000028
1 -4.4500000000000028 44 -1 0 
8 -18.049999999999997 -4.4500000000000028
1 1 4.4500000000000028 0 -1 
1 0 5 1 0 
2 0 0 1 0 -0 1 2
1 6.2831853071795862 -0 0 1 
1 0 -0 0 1 
1 0 5 1 0 
2 0 0 1 0 -0 1 2
1 6.2831853071795862 -0 0 1 
1 0 -0 0 1 
1 0 5 1 0 
2 0 0 1 0 -0 1 2
1 6.2831853071795862 -0 0 1 
1 0 -0 0 1 
1 0 5 1 0 
2 0 0 1 0 -0 1 2
1 6.2831853071795862 -0 0 1 
1 0 -0 0 1 
1 0 0 0 1 
1 0 0 1 0 
1 36 48 1 0 
1 0 -36 1 0 
1 0 0 1 0 
1 0 53 1 0 
1 0 -36 1 0 
1 0 3 1 0 
1 0 3 1 0 
1 0 0 1 0 
1 0 0 1 0 
1 0 53 1 0 
1 0 0 0 -1 
1 0 0 0 1 
1 89 12 0 1 
1 0 0 0 1 
1 0 3 1 0 
1 36 12 1 0 
1 0 0 1 0 
1 0 3 1 0 
1 0 3 1 0 
1 0 0 0 -1 
1 3 0 0 1 
1 39 12 0 1 
1 6.2831853071795862 -0 0 1 
1 0 -0 0 1 
1 6.2831853071795862 -0 0 1 
1 0 -0 0 1 
1 6.2831853071795862 -0 0 1 
1 0 -0 0 1 
1 6.2831853071795862 -0 0 1 
1 0 -0 0 1 
Curves 126
1 -44 21 12 1 0 -0 
1 12 21 12 0 0 1 
1 -44 21 22 1 0 -0 
1 -44 21 12 0 0 1 
1 0 60 4 1 0 -0 
1 -71 22 12 -0 1 0 
1 -71 22 12 1 0 -0 
1 -59 22 12 -0 1 0 
1 59 22 12 -0 1 0 
1 59 22 12 1 0 -0 
1 71 22 12 -0 1 0 
1 160 0 4 -0 1 0 
1 0 0 4 1 0 -0 
1 71 -30 12 -0 1 0 
1 59 -22 12 1 0 -0 
1 59 -30 12 -0 1 0 
1 -59 -30 12 -0 1 0 
1 -71 -22 12 1 0 -0 
1 -71 -30 12 -0 1 0 
1 0 0 4 -0 1 0 
1 -84.450000000000003 -14 12 -1 -0 0 
1 -76.5 -25.625 12 -0 1 0 
1 -78.25 -21.25 12 -1 -0 0 
1 -53.5 -25.625 12 -0 1 0 
1 -78.25 -13.75 12 -1 -0 0 
1 -66.400000000000006 -22 12 -0 1 0 
1 -84.450000000000003 14 12 -1 -0 0 
2 33 -11 12 0 0 1 1 0 -0 -0 1 0 2
2 55 -11 12 0 0 1 1 0 -0 -0 1 0 2
1 -44 -21 12 1 0 -0 
1 12 18 12 -0 1 0 
1 -44 -21 12 -0 1 0 
2 33 11 12 0 0 1 1 0 -0 -0 1 0 2
2 55 11 12 0 0 1 1 0 -0 -0 1 0 2
1 12 -21 22 -0 1 0 
1 12 -21 12 0 0 1 
1 -44 -21 22 -0 1 0 
1 -44 -21 22 1 0 -0 
1 -44 18 22 1 0 -0 
1 9 -18 22 -0 1 0 
1 -44 -18 22 1 0 -0 
1 -41 -18 22 -0 1 0 
1 -44 -21 12 0 0 1 
1 0 60 0 1 0 -0 
1 160 60 0 0 0 1 
1 0 60 0 0 0 1 
1 71 30 12 0 0 1 
1 -71 30 12 0 0 1 
1 59 30 24 1 0 -0 
1 -71 30 24 1 0 -0 
1 59 30 12 0 0 1 
1 -59 30 12 0 0 1 
2 -65 30 18 0 1 0 0 -0 1 1 0 -0 2.1499999999999999
2 65 30 18 0 1 0 0 -0 1 1 0 -0 2.1499999999999999
1 -71 22 12 0 0 1 
1 -71 22 24 -0 1 0 
1 -59 22 12 0 0 1 
1 -71 22 24 1 0 -0 
2 -65 22 18 0 1 0 0 -0 1 1 0 -0 2.1499999999999999
1 -59 22 24 -0 1 0 
1 59 22 12 0 0 1 
1 59 22 24 -0 1 0 
1 71 22 12 0 0 1 
1 59 22 24 1 0 -0 
2 65 22 18 0 1 0 0 -0 1 1 0 -0 2.1499999999999999
1 71 22 24 -0 1 0 
1 160 0 0 0 0 1 
1 160 0 0 -0 1 0 
1 0 0 0 1 0 -0 
1 0 0 0 0 0 1 
1 71 -30 12 0 0 1 
1 -71 -30 12 0 0 1 
1 59 -30 24 1 0 -0 
1 -71 -30 24 1 0 -0 
1 59 -30 12 0 0 1 
1 -59 -30 12 0 0 1 
2 -65 -30 18 0 1 0 0 -0 1 1 0 -0 2.1499999999999999
2 65 -30 18 0 1 0 0 -0 1 1 0 -0 2.1499999999999999
1 71 -30 24 -0 1 0 
1 71 -22 12 0 0 1 
1 59 -22 12 0 0 1 
1 59 -22 24 1 0 -0 
2 65 -22 18 0 1 0 0 -0 1 1 0 -0 2.1499999999999999
1 59 -30 24 -0 1 0 
1 -59 -30 24 -0 1 0 
1 -59 -22 12 0 0 1 
1 -71 -22 12 0 0 1 
1 -71 -22 24 1 0 -0 
2 -65 -22 18 0 1 0 0 -0 1 1 0 -0 2.1499999999999999
1 -71 -30 24 -0 1 0 
1 -80 -14 7.5 0 0 1 
1 0 0 0 -0 1 0 
1 -76.5 -14 7 -0 0 -1 
1 -84.450000000000003 -14 8 -1 -0 0 
1 -76.5 -21.25 7 0 0 1 
1 -76.5 -25.625 8 -0 1 0 
1 -53.5 -21.25 7 0 0 1 
1 -78.25 -21.25 8 -1 -0 0 
1 -53.5 -13.75 7 0 0 1 
1 -53.5 -25.625 8 -0 1 0 
1 -66.400000000000006 -13.75 7 0 0 1 
1 -78.25 -13.75 8 -1 -0 0 
1 -66.400000000000006 14 7 0 0 1 
1 -66.400000000000006 -22 8 -0 1 0 
1 -80 14 7.5 0 0 1 
1 -84.450000000000003 14 8 -1 -0 0 
2 33 -11 17 0 0 1 1 0 -0 -0 1 0 2
1 35 -11 12 0 0 1 
2 55 -11 17 0 0 1 1 0 -0 -0 1 0 2
1 57 -11 12 0 0 1 
2 33 11 17 0 0 1 1 0 -0 -0 1 0 2
1 35 11 12 0 0 1 
2 55 11 17 0 0 1 1 0 -0 -0 1 0 2
1 57 11 12 0 0 1 
1 -44 18 12 1 0 -0 
1 9 18 12 0 0 1 
1 -41 18 12 0 0 1 
1 9 -18 12 0 0 1 
1 9 -18 12 -0 1 0 
1 -44 -18 12 1 0 -0 
1 -41 -18 12 0 0 1 
1 -41 -18 12 -0 1 0 
1 -65 21 20.149999999999999 0 1 0 
1 65 21 20.149999999999999 0 1 0 
1 -65 -31 20.149999999999999 0 1 0 
1 65 -31 20.149999999999999 0 1 0 
Polygon3D 0
PolygonOnTriangulations 0
Surfaces 80
1 -44 21 12 -0 1 0 0 0 1 1 0 -0 
1 -44 18 12 0 0 1 1 0 -0 -0 1 0 
1 0 0 4 0 0 1 1 0 -0 -0 1 0 
1 12 18 12 1 0 -0 0 0 1 0 -1 0 
1 -44 18 22 0 0 1 1 0 -0 -0 1 0 
1 -44 18 12 1 0 -0 0 0 1 0 -1 0 
1 0 60 0 -0 1 0 0 0 1 1 0 -0 
1 0 30 11.787234042553191 0 1 0 0 -0 1 1 0 -0 
1 -71 22 12 1 0 -0 0 0 1 0 -1 0 
1 -71 22 12 0 0 1 1 0 -0 -0 1 0 
1 -71 22 12 -0 1 0 0 0 1 1 0 -0 
1 -59 22 12 1 0 -0 0 0 1 0 -1 0 
1 59 22 12 1 0 -0 0 0 1 0 -1 0 
1 59 22 12 0 0 1 1 0 -0 -0 1 0 
1 59 22 12 -0 1 0 0 0 1 1 0 -0 
1 71 22 12 1 0 -0 0 0 1 0 -1 0 
1 160 0 0 1 0 -0 0 0 1 0 -1 0 
1 0 0 0 -0 1 0 0 0 1 1 0 -0 
1 0 -30 11.787234042553191 -0 -1 -0 0 0 -1 1 -0 0 
1 71 -30 12 1 0 -0 0 0 1 0 -1 0 
1 59 -30 12 0 0 1 1 0 -0 -0 1 0 
1 59 -22 12 -0 1 0 0 0 1 1 0 -0 
1 59 -30 12 1 0 -0 0 0 1 0 -1 0 
1 -59 -30 12 1 0 -0 0 0 1 0 -1 0 
1 -71 -30 12 0 0 1 1 0 -0 -0 1 0 
1 -71 -22 12 -0 1 0 0 0 1 1 0 -0 
1 -71 -30 12 1 0 -0 0 0 1 0 -1 0 
1 0 0 0 1 0 -0 0 0 1 0 -1 0 
1 -88.900000000000006 -14 7 -0 1 0 0 0 1 1 0 -0 
1 -76.5 -21.25 7 1 0 -0 0 0 1 0 -1 0 
1 -76.5 -21.25 7 -0 1 0 0 0 1 1 0 -0 
1 -53.5 -21.25 7 1 0 -0 0 0 1 0 -1 0 
1 -76.5 -13.75 7 -0 1 0 0 0 1 1 0 -0 
1 -66.400000000000006 -14 7 1 0 -0 0 0 1 0 -1 0 
1 -88.900000000000006 14 7 -0 1 0 0 0 1 1 0 -0 
2 33 -11 12 0 0 1 1 0 -0 -0 1 0 2
1 33 -11 12 0 0 1 1 0 -0 -0 1 0 
2 55 -11 12 0 0 1 1 0 -0 -0 1 0 2
1 55 -11 12 0 0 1 1 0 -0 -0 1 0 
1 -44 -21 12 -0 1 0 0 0 1 1 0 -0 
1 -44 -21 12 0 0 1 1 0 -0 -0 1 0 
2 33 11 12 0 0 1 1 0 -0 -0 1 0 2
1 33 11 12 0 0 1 1 0 -0 -0 1 0 
2 55 11 12 0 0 1 1 0 -0 -0 1 0 2
1 55 11 12 0 0 1 1 0 -0 -0 1 0 
1 12 0 17 1 0 0 -0 0 1 0 -1 0 
1 12 -21 12 1 0 -0 0 0 1 0 -1 0 
1 -16 0 22 0 0 1 1 0 -0 -0 1 0 
1 -44 -21 22 0 0 1 1 0 -0 -0 1 0 
1 -44 18 12 -0 1 0 0 0 1 1 0 -0 
1 9 -18 12 1 0 -0 0 0 1 0 -1 0 
1 9 -18 22 0 0 1 1 0 -0 -0 1 0 
1 -44 -18 12 -0 1 0 0 0 1 1 0 -0 
1 -41 -18 12 1 0 -0 0 0 1 0 -1 0 
1 -44 -18 22 0 0 1 1 0 -0 -0 1 0 
1 -44 0 17 -1 -0 -0 0 0 -1 0 -1 0 
1 -44 -21 12 1 0 -0 0 0 1 0 -1 0 
1 0 0 0 0 0 1 1 0 -0 -0 1 0 
1 59 30 12 -0 1 0 0 0 1 1 0 -0 
1 -71 30 12 -0 1 0 0 0 1 1 0 -0 
1 59 22 24 0 0 1 1 0 -0 -0 1 0 
1 -71 22 24 0 0 1 1 0 -0 -0 1 0 
2 -65 21 18 0 1 0 0 -0 1 1 0 -0 2.1499999999999999
2 65 21 18 0 1 0 0 -0 1 1 0 -0 2.1499999999999999
1 59 -30 12 -0 1 0 0 0 1 1 0 -0 
1 -71 -30 12 -0 1 0 0 0 1 1 0 -0 
1 59 -30 24 0 0 1 1 0 -0 -0 1 0 
1 -71 -30 24 0 0 1 1 0 -0 -0 1 0 
2 -65 -31 18 0 1 0 0 -0 1 1 0 -0 2.1499999999999999
2 65 -31 18 0 1 0 0 -0 1 1 0 -0 2.1499999999999999
1 33 -11 17 0 0 1 1 0 -0 -0 1 0 
1 55 -11 17 0 0 1 1 0 -0 -0 1 0 
1 33 11 17 0 0 1 1 0 -0 -0 1 0 
1 55 11 17 0 0 1 1 0 -0 -0 1 0 
1 9 18 12 -0 1 0 0 0 1 1 0 -0 
1 -44 18 12 -0 1 0 0 0 1 1 0 -0 
1 9 -18 12 -0 1 0 0 0 1 1 0 -0 
1 9 -18 12 0 0 1 1 0 -0 -0 1 0 
1 -44 -18 12 -0 1 0 0 0 1 1 0 -0 
1 -44 -18 12 0 0 1 1 0 -0 -0 1 0 
Triangulations 0

TShapes 341
Ve
1e-07
12 21 12
0 0

0101101
*
Ve
1e-07
-44 21 12
0 0

0101101
*
Ed
 1e-07 1 1 0
1  1 0 0 56
2  1 1 0 0 56
2  2 2 0 0 56
2  3 3 1 0 56
0

0101000
-341 0 +340 0 *
Ve
1e-07
12 21 22
0 0

0101101
*
Ed
 1e-07 1 1 0
1  2 0 0 10
2  4 4 0 0 10
2  5 1 0 0 10
0

0101000
-338 0 +341 0 *
Ve
1e-07
-44 21 22
0 0

0101101
*
Ed
 1e-07 1 1 0
1  3 0 0 56
2  6 1 0 0 56
2  7 5 0 0 56
0

0101000
-338 0 +336 0 *
Ed
 1e-07 1 1 0
1  4 0 0 10
2  8 6 0 0 10
2  9 1 0 0 10
0

0101000
-336 0 +340 0 *
Wi

0101100
-339 0 -337 0 +335 0 +334 0 *
Fa
0  1e-07 1 0

0111000
+333 0 *
Ve
1e-07
0 60 4
0 0

0101101
*
Ve
1e-07
-71 30 12
0 0

0101101
*
Ed
 1e-07 1 1 0
1  5 0 0 9
2  10 7 0 0 9
2  11 3 0 0 9
2  12 8 2 0 9
0

0101000
+331 0 -330 2 *
Ve
1e-07
-71 22 12
0 0

0101101
*
Ed
 1e-07 1 1 0
1  6 0 0 8
2  13 9 0 0 8
2  14 10 0 0 8
2  15 3 1 0 8
0

0101000
-330 0 +328 0 *
Ve
1e-07
-59 22 12
0 0

0101101
*
Ed
 1e-07 1 1 0
1  7 0 0 12
2  16 11 0 0 12
2  17 10 0 0 12
2  18 3 1 0 12
0

0101000
-326 0 +328 0 *
Ve
1e-07
-59 30 12
0 0

0101101
*
Ed
 1e-07 1 1 0
1  8 0 0 8
2  19 12 0 0 8
2  20 10 0 0 8
2  21 3 1 0 8
0

0101000
-324 0 +326 0 *
Ve
1e-07
59 30 12
0 0

0101101
*
Ed
 1e-07 1 1 0
1  5 0 21 139
2  10 7 0 21 139
2  11 3 0 21 139
2  22 8 2 21 139
0

0101000
+324 2 -322 2 *
Ve
1e-07
59 22 12
0 0

0101101
*
Ed
 1e-07 1 1 0
1  9 0 0 8
2  23 13 0 0 8
2  24 14 0 0 8
2  25 3 1 0 8
0

0101000
-322 0 +320 0 *
Ve
1e-07
71 22 12
0 0

0101101
*
Ed
 1e-07 1 1 0
1  10 0 0 12
2  26 15 0 0 12
2  27 14 0 0 12
2  28 3 1 0 12
0

0101000
-318 0 +320 0 *
Ve
1e-07
71 30 12
0 0

0101101
*
Ed
 1e-07 1 1 0
1  11 0 0 8
2  29 16 0 0 8
2  30 14 0 0 8
2  31 3 1 0 8
0

0101000
-316 0 +318 0 *
Ve
1e-07
160 60 4
0 0

0101101
*
Ed
 1e-07 1 1 0
1  5 0 151 160
2  10 7 0 151 160
2  11 3 0 151 160
2  32 8 2 151 160
0

0101000
+316 2 -314 0 *
Ve
1e-07
160 0 4
0 0

0101101
*
Ed
 1e-07 1 1 0
1  12 0 0 60
2  33 17 0 0 60
2  34 3 0 0 60
0

0101000
-314 0 +312 0 *
Ve
1e-07
71 -30 12
0 0

0101101
*
Ed
 1e-07 1 1 0
1  13 0 151 160
2  35 18 0 151 160
2  36 3 0 151 160
2  37 19 2 151 160
0

0101000
+310 2 -312 0 *
Ve
1e-07
71 -22 12
0 0

0101101
*
Ed
 1e-07 1 1 0
1  14 0 0 8
2  38 20 0 0 8
2  39 21 0 0 8
2  40 3 1 0 8
0

0101000
-308 0 +310 0 *
Ve
1e-07
59 -22 12
0 0

0101101
*
Ed
 1e-07 1 1 0
1  15 0 0 12
2  41 22 0 0 12
2  42 21 0 0 12
2  43 3 1 0 12
0

0101000
-308 0 +306 0 *
Ve
1e-07
59 -30 12
0 0

0101101
*
Ed
 1e-07 1 1 0
1  16 0 0 8
2  44 23 0 0 8
2  45 21 0 0 8
2  46 3 1 0 8
0

0101000
-306 0 +304 0 *
Ve
1e-07
-59 -30 12
0 0

0101101
*
Ed
 1e-07 1 1 0
1  13 0 21 139
2  35 18 0 21 139
2  36 3 0 21 139
2  47 19 2 21 139
0

0101000
+302 2 -304 2 *
Ve
1e-07
-59 -22 12
0 0

0101101
*
Ed
 1e-07 1 1 0
1  17 0 0 8
2  48 24 0 0 8
2  49 25 0 0 8
2  50 3 1 0 8
0

0101000
-300 0 +302 0 *
Ve
1e-07
-71 -22 12
0 0

0101101
*
Ed
 1e-07 1 1 0
1  18 0 0 12
2  51 26 0 0 12
2  52 25 0 0 12
2  53 3 1 0 12
0

0101000
-300 0 +298 0 *
Ve
1e-07
-71 -30 12
0 0

0101101
*
Ed
 1e-07 1 1 0
1  19 0 0 8
2  54 27 0 0 8
2  55 25 0 0 8
2  56 3 1 0 8
0

0101000
-298 0 +296 0 *
Ve
1e-07
0 0 4
0 0

0101101
*
Ed
 1e-07 1 1 0
1  13 0 0 9
2  35 18 0 0 9
2  36 3 0 0 9
2  57 19 2 0 9
0

0101000
+294 0 -296 2 *
Ve
1.5e-07
-80 -14 12
0 0

0101101
*
Ed
 1e-07 1 1 0
1  20 0 0 16
2  58 28 0 0 16
2  59 3 0 0 16
0

0101000
+294 0 -292 2 *
Ve
1.5e-07
-76.5 -14 12
0 0

0101101
*
Ed
 1.5e-07 1 1 0
1  21 0 -7.95 -4.45
2  60 3 1 -7.95 -4.45
2  61 29 0 -7.95 -4.45
0

0101000
+290 0 -292 0 *
Ve
1.5e-07
-76.5 -21.25 12
0 0

0101101
*
Ed
 1.5e-07 1 1 0
1  22 0 4.375 11.625
2  62 3 1 4.375 11.625
2  63 30 0 4.375 11.625
0

0101000
+288 0 -290 0 *
Ve
1.5e-07
-53.5 -21.25 12
0 0

0101101
*
Ed
 1.5e-07 1 1 0
1  23 0 -24.75 -1.75
2  64 3 1 -24.75 -1.75
2  65 31 0 -24.75 -1.75
0

0101000
+286 0 -288 0 *
Ve
1.5e-07
-53.5 -13.75 12
0 0

0101101
*
Ed
 1.5e-07 1 1 0
1  24 0 4.375 11.875
2  66 3 1 4.375 11.875
2  67 32 0 4.375 11.875
0

0101000
+286 0 -284 0 *
Ve
1.5e-07
-66.4 -13.75 12
0 0

0101101
*
Ed
 1.5e-07 1 1 0
1  25 0 -24.75 -11.85
2  68 3 1 -24.75 -11.85
2  69 33 0 -24.75 -11.85
0

0101000
+284 0 -282 0 *
Ve
1.5e-07
-66.4 14 12
0 0

0101101
*
Ed
 1.5e-07 1 1 0
1  26 0 8.25 36
2  70 3 1 8.25 36
2  71 34 0 8.25 36
0

0101000
+282 0 -280 0 *
Ve
1.5e-07
-80 14 12
0 0

0101101
*
Ed
 1.5e-07 1 1 0
1  27 0 -18.05 -4.45
2  72 3 1 -18.05 -4.45
2  73 35 0 -18.05 -4.45
0

0101000
+280 0 -278 0 *
Ed
 1e-07 1 1 0
1  20 0 44 60
2  58 28 0 44 60
2  59 3 0 44 60
0

0101000
+278 2 -331 0 *
Wi

0101100
-329 1 +327 0 -325 0 -323 0 -321 1 +319 0 -317 0 -315 0 -313 1 +311 1 
+309 1 -307 0 +305 0 +303 0 +301 1 -299 0 +297 0 +295 0 +293 1 -291 1 
+289 0 +287 0 +285 0 -283 0 -281 0 -279 0 -277 0 -276 1 *
Ve
1e-07
35 -11 12
0 0

0101101
*
Ed
 1e-07 1 1 0
1  28 0 0 6.28318530717959
2  74 36 0 0 6.28318530717959
2  75 37 0 0 6.28318530717959
2  76 3 1 0 6.28318530717959
0

0101000
+274 0 -274 0 *
Wi

0101100
-273 0 *
Ve
1e-07
57 -11 12
0 0

0101101
*
Ed
 1e-07 1 1 0
1  29 0 0 6.28318530717959
2  77 38 0 0 6.28318530717959
2  78 39 0 0 6.28318530717959
2  79 3 1 0 6.28318530717959
0

0101000
+271 0 -271 0 *
Wi

0101100
-270 0 *
Ve
1e-07
12 -21 12
0 0

0101101
*
Ve
1e-07
-44 -21 12
0 0

0101101
*
Ed
 1e-07 1 1 0
1  30 0 0 56
2  80 40 0 0 56
2  81 41 0 0 56
2  82 3 1 0 56
0

0101000
-268 0 +267 0 *
Ed
 1e-07 1 1 0
1  31 0 -39 3
2  83 3 1 -39 3
0

0101000
+268 0 -341 0 *
Ed
 1e-07 1 1 0
1  32 0 0 42
2  84 3 1 0 42
0

0101000
+267 0 -340 0 *
Wi

0101100
-266 0 -265 0 +264 0 +339 0 *
Ve
1e-07
35 11 12
0 0

0101101
*
Ed
 1e-07 1 1 0
1  33 0 0 6.28318530717959
2  85 42 0 0 6.28318530717959
2  86 43 0 0 6.28318530717959
2  87 3 1 0 6.28318530717959
0

0101000
+262 0 -262 0 *
Wi

0101100
-261 0 *
Ve
1e-07
57 11 12
0 0

0101101
*
Ed
 1e-07 1 1 0
1  34 0 0 6.28318530717959
2  88 44 0 0 6.28318530717959
2  89 45 0 0 6.28318530717959
2  90 3 1 0 6.28318530717959
0

0101000
+259 0 -259 0 *
Wi

0101100
-258 0 *
Fa
0  1e-07 3 1

0101000
+275 0 +272 0 +269 0 +263 0 +260 0 +257 0 *
Ve
1e-07
12 -21 22
0 0

0101101
*
Ed
 1e-07 1 1 0
1  35 0 0 42
0

0101000
+255 0 -338 0 *
Ed
 1e-07 1 1 0
1  36 0 0 10
2  91 47 0 0 10
2  92 40 0 0 10
0

0101000
-255 0 +268 0 *
Wi

0101000
-254 0 -253 0 +265 0 +337 0 *
Fa
0  1e-07 46 0

0111000
+252 0 *
Ve
1e-07
-44 -21 22
0 0

0101101
*
Ed
 1e-07 1 1 0
1  37 0 0 42
0

0101000
+250 0 -336 0 *
Ed
 1e-07 1 1 0
1  38 0 0 56
2  93 40 0 0 56
2  94 49 0 0 56
0

0101000
-255 0 +250 0 *
Wi

0101000
-249 0 +248 0 +254 0 -335 0 *
Ve
1e-07
-41 18 22
0 0

0101101
*
Ve
1e-07
9 18 22
0 0

0101101
*
Ed
 1e-07 1 1 0
1  39 0 3 53
2  95 50 0 3 53
2  96 5 0 3 53
0

0101000
+246 0 -245 0 *
Ve
1e-07
9 -18 22
0 0

0101101
*
Ed
 1e-07 1 1 0
1  40 0 0 36
2  97 51 0 0 36
2  98 52 0 0 36
0

0101000
-245 0 +243 0 *
Ve
1e-07
-41 -18 22
0 0

0101101
*
Ed
 1e-07 1 1 0
1  41 0 3 53
2  99 53 0 3 53
2  100 49 0 3 53
0

0101000
+241 0 -243 0 *
Ed
 1e-07 1 1 0
1  42 0 0 36
2  101 54 0 0 36
2  102 55 0 0 36
0

0101000
-246 0 +241 0 *
Wi

0101100
+244 0 -242 0 -240 0 +239 0 *
Fa
0  1e-07 48 0

0111000
+247 0 +238 0 *
Ed
 1e-07 1 1 0
1  43 0 0 10
2  103 57 0 0 10
2  104 40 0 0 10
0

0101000
-250 0 +267 0 *
Wi

0101000
-334 0 -264 0 +236 0 +249 0 *
Fa
0  1e-07 56 0

0111000
+235 0 *
Ve
1e-07
160 60 0
0 0

0101101
*
Ve
1e-07
0 60 0
0 0

0101101
*
Ed
 1e-07 1 1 0
1  44 0 0 160
2  105 7 0 0 160
2  106 58 0 0 160
2  107 8 2 0 160
0

0101000
-233 0 +232 0 *
Ed
 1e-07 1 1 0
1  45 0 0 4
2  108 17 0 0 4
2  109 7 0 0 4
2  110 8 2 0 4
0

0101000
-314 0 +233 0 *
Ed
 1e-07 1 1 0
1  46 0 0 4
2  111 28 0 0 4
2  112 7 0 0 4
2  113 8 2 0 4
0

0101000
-331 0 +232 0 *
Ve
1e-07
71 30 24
0 0

0101101
*
Ed
 1e-07 1 1 0
1  47 0 0 12
2  114 16 0 0 12
2  115 59 0 0 12
2  116 8 0 0 12
0

0101000
-228 0 +316 0 *
Ve
1e-07
-71 30 24
0 0

0101101
*
Ed
 1e-07 1 1 0
1  48 0 0 12
2  117 9 0 0 12
2  118 60 0 0 12
2  119 8 0 0 12
0

0101000
-226 0 +330 0 *
Ve
1e-07
59 30 24
0 0

0101101
*
Ed
 1e-07 1 1 0
1  49 0 0 12
2  120 59 0 0 12
2  121 61 0 0 12
2  122 8 0 0 12
0

0101000
-228 0 +224 0 *
Ve
1e-07
-59 30 24
0 0

0101101
*
Ed
 1e-07 1 1 0
1  50 0 0 12
2  123 60 0 0 12
2  124 62 0 0 12
2  125 8 0 0 12
0

0101000
-222 0 +226 0 *
Ed
 1e-07 1 1 0
1  51 0 0 12
2  126 13 0 0 12
2  127 59 0 0 12
2  128 8 0 0 12
0

0101000
-224 0 +322 0 *
Ed
 1e-07 1 1 0
1  52 0 0 12
2  129 12 0 0 12
2  130 60 0 0 12
2  131 8 0 0 12
0

0101000
-222 0 +324 0 *
Wi

0101100
-231 1 -230 1 +229 1 +313 1 +329 1 -227 0 +225 0 +223 0 +221 0 +220 0 
-219 0 +321 1 *
Ve
1e-07
-65 30 20.15
0 0

0101101
*
Ed
 1e-07 1 1 0
1  53 0 0 6.28318530717959
2  132 8 0 0 6.28318530717959
2  133 63 0 0 6.28318530717959
0

0101000
+217 0 -217 0 *
Wi

0101100
-216 0 *
Ve
1e-07
65 30 20.15
0 0

0101101
*
Ed
 1e-07 1 1 0
1  54 0 0 6.28318530717959
2  134 8 0 0 6.28318530717959
2  135 64 0 0 6.28318530717959
0

0101000
+214 0 -214 0 *
Wi

0101100
-213 0 *
Fa
0  1e-07 8 0

0101000
+218 0 +215 0 +212 0 *
Ve
1e-07
-71 22 24
0 0

0101101
*
Ed
 1e-07 1 1 0
1  55 0 0 12
2  136 9 0 0 12
2  137 11 0 0 12
0

0101000
-210 0 +328 0 *
Ed
 1e-07 1 1 0
1  56 0 0 8
2  138 9 0 0 8
2  139 62 0 0 8
0

0101000
-226 0 +210 0 *
Wi

0101100
-209 0 -208 0 +225 0 +327 0 *
Fa
0  1e-07 9 0

0111000
+207 0 *
Ve
1e-07
-59 22 24
0 0

0101101
*
Ed
 1e-07 1 1 0
1  57 0 0 12
2  140 12 0 0 12
2  141 11 0 0 12
0

0101000
-205 0 +326 0 *
Ed
 1e-07 1 1 0
1  58 0 0 12
2  142 11 0 0 12
2  143 62 0 0 12
0

0101000
-205 0 +210 0 *
Wi

0101100
-325 0 -204 0 +209 0 +203 0 *
Ve
1e-07
-65 22 20.15
0 0

0101101
*
Ed
 1e-07 1 1 0
1  59 0 0 6.28318530717959
2  144 11 0 0 6.28318530717959
2  145 63 0 0 6.28318530717959
0

0101000
+201 0 -201 0 *
Wi

0101100
-200 0 *
Fa
0  1e-07 11 0

0101000
+202 0 +199 0 *
Ed
 1e-07 1 1 0
1  60 0 0 8
2  146 12 0 0 8
2  147 62 0 0 8
0

0101000
-222 0 +205 0 *
Wi

0101100
-204 0 -197 0 +219 0 +323 0 *
Fa
0  1e-07 12 0

0111000
+196 0 *
Ve
1e-07
59 22 24
0 0

0101101
*
Ed
 1e-07 1 1 0
1  61 0 0 12
2  148 13 0 0 12
2  149 15 0 0 12
0

0101000
-194 0 +320 0 *
Ed
 1e-07 1 1 0
1  62 0 0 8
2  150 13 0 0 8
2  151 61 0 0 8
0

0101000
-224 0 +194 0 *
Wi

0101100
-193 0 -192 0 +220 0 +319 0 *
Fa
0  1e-07 13 0

0111000
+191 0 *
Ve
1e-07
71 22 24
0 0

0101101
*
Ed
 1e-07 1 1 0
1  63 0 0 12
2  152 16 0 0 12
2  153 15 0 0 12
0

0101000
-189 0 +318 0 *
Ed
 1e-07 1 1 0
1  64 0 0 12
2  154 15 0 0 12
2  155 61 0 0 12
0

0101000
-189 0 +194 0 *
Wi

0101100
-317 0 -188 0 +193 0 +187 0 *
Ve
1e-07
65 22 20.15
0 0

0101101
*
Ed
 1e-07 1 1 0
1  65 0 0 6.28318530717959
2  156 15 0 0 6.28318530717959
2  157 64 0 0 6.28318530717959
0

0101000
+185 0 -185 0 *
Wi

0101100
-184 0 *
Fa
0  1e-07 15 0

0101000
+186 0 +183 0 *
Ed
 1e-07 1 1 0
1  66 0 0 8
2  158 16 0 0 8
2  159 61 0 0 8
0

0101000
-228 0 +189 0 *
Wi

0101100
-188 0 -181 0 +227 0 +315 0 *
Fa
0  1e-07 16 0

0111000
+180 0 *
Ve
1e-07
160 0 0
0 0

0101101
*
Ed
 1e-07 1 1 0
1  67 0 0 4
2  160 17 0 0 4
2  161 18 0 0 4
2  162 19 2 0 4
0

0101000
-312 0 +178 0 *
Ed
 1e-07 1 1 0
1  68 0 0 60
2  163 17 0 0 60
2  164 58 0 0 60
0

0101000
-233 0 +178 0 *
Wi

0101100
-177 0 -311 0 +230 0 +176 0 *
Fa
0  1e-07 17 0

0111000
+175 0 *
Ve
1e-07
0 0 0
0 0

0101101
*
Ed
 1e-07 1 1 0
1  69 0 0 160
2  165 18 0 0 160
2  166 58 0 0 160
2  167 19 2 0 160
0

0101000
-178 0 +173 0 *
Ed
 1e-07 1 1 0
1  70 0 0 4
2  168 28 0 0 4
2  169 18 0 0 4
2  170 19 2 0 4
0

0101000
-294 0 +173 0 *
Ve
1e-07
71 -30 24
0 0

0101101
*
Ed
 1e-07 1 1 0
1  71 0 0 12
2  171 20 0 0 12
2  172 65 0 0 12
2  173 19 0 0 12
0

0101000
-170 0 +310 0 *
Ve
1e-07
-71 -30 24
0 0

0101101
*
Ed
 1e-07 1 1 0
1  72 0 0 12
2  174 27 0 0 12
2  175 66 0 0 12
2  176 19 0 0 12
0

0101000
-168 0 +296 0 *
Ve
1e-07
59 -30 24
0 0

0101101
*
Ed
 1e-07 1 1 0
1  73 0 0 12
2  177 65 0 0 12
2  178 67 0 0 12
2  179 19 0 0 12
0

0101000
-170 0 +166 0 *
Ve
1e-07
-59 -30 24
0 0

0101101
*
Ed
 1e-07 1 1 0
1  74 0 0 12
2  180 66 0 0 12
2  181 68 0 0 12
2  182 19 0 0 12
0

0101000
-164 0 +168 0 *
Ed
 1e-07 1 1 0
1  75 0 0 12
2  183 23 0 0 12
2  184 65 0 0 12
2  185 19 0 0 12
0

0101000
-166 0 +304 0 *
Ed
 1e-07 1 1 0
1  76 0 0 12
2  186 24 0 0 12
2  187 66 0 0 12
2  188 19 0 0 12
0

0101000
-164 0 +302 0 *
Wi

0101100
+172 1 +177 1 -171 1 -309 1 -293 1 +169 0 -167 0 -165 0 -163 0 -162 0 
+161 0 -301 1 *
Ve
1e-07
-65 -30 20.15
0 0

0101101
*
Ed
 1e-07 1 1 0
1  77 0 0 6.28318530717959
2  189 19 0 0 6.28318530717959
2  190 69 0 0 6.28318530717959
0

0101000
+159 0 -159 0 *
Wi

0101100
+158 0 *
Ve
1e-07
65 -30 20.15
0 0

0101101
*
Ed
 1e-07 1 1 0
1  78 0 0 6.28318530717959
2  191 19 0 0 6.28318530717959
2  192 70 0 0 6.28318530717959
0

0101000
+156 0 -156 0 *
Wi

0101100
+155 0 *
Fa
0  1e-07 19 0

0101000
+160 0 +157 0 +154 0 *
Ve
1e-07
71 -22 24
0 0

0101101
*
Ed
 1e-07 1 1 0
1  79 0 0 8
2  193 20 0 0 8
2  194 67 0 0 8
0

0101000
-152 0 +170 0 *
Ed
 1e-07 1 1 0
1  80 0 0 12
2  195 20 0 0 12
2  196 22 0 0 12
0

0101000
-152 0 +308 0 *
Wi

0101100
-169 0 -151 0 +150 0 +307 0 *
Fa
0  1e-07 20 0

0111000
+149 0 *
Ve
1e-07
59 -22 24
0 0

0101101
*
Ed
 1e-07 1 1 0
1  81 0 0 12
2  197 23 0 0 12
2  198 22 0 0 12
0

0101000
-147 0 +306 0 *
Ed
 1e-07 1 1 0
1  82 0 0 12
2  199 22 0 0 12
2  200 67 0 0 12
0

0101000
-152 0 +147 0 *
Wi

0101100
-305 0 -150 0 +146 0 +145 0 *
Ve
1e-07
65 -22 20.15
0 0

0101101
*
Ed
 1e-07 1 1 0
1  83 0 0 6.28318530717959
2  201 22 0 0 6.28318530717959
2  202 70 0 0 6.28318530717959
0

0101000
+143 0 -143 0 *
Wi

0101100
-142 0 *
Fa
0  1e-07 22 0

0101000
+144 0 +141 0 *
Ed
 1e-07 1 1 0
1  84 0 0 8
2  203 23 0 0 8
2  204 67 0 0 8
0

0101000
-147 0 +166 0 *
Wi

0101100
-162 0 -139 0 +146 0 +303 0 *
Fa
0  1e-07 23 0

0111000
+138 0 *
Ve
1e-07
-59 -22 24
0 0

0101101
*
Ed
 1e-07 1 1 0
1  85 0 0 8
2  205 24 0 0 8
2  206 68 0 0 8
0

0101000
-136 0 +164 0 *
Ed
 1e-07 1 1 0
1  86 0 0 12
2  207 24 0 0 12
2  208 26 0 0 12
0

0101000
-136 0 +300 0 *
Wi

0101100
-161 0 -135 0 +134 0 +299 0 *
Fa
0  1e-07 24 0

0111000
+133 0 *
Ve
1e-07
-71 -22 24
0 0

0101101
*
Ed
 1e-07 1 1 0
1  87 0 0 12
2  209 27 0 0 12
2  210 26 0 0 12
0

0101000
-131 0 +298 0 *
Ed
 1e-07 1 1 0
1  88 0 0 12
2  211 26 0 0 12
2  212 68 0 0 12
0

0101000
-136 0 +131 0 *
Wi

0101100
-297 0 -134 0 +130 0 +129 0 *
Ve
1e-07
-65 -22 20.15
0 0

0101101
*
Ed
 1e-07 1 1 0
1  89 0 0 6.28318530717959
2  213 26 0 0 6.28318530717959
2  214 69 0 0 6.28318530717959
0

0101000
+127 0 -127 0 *
Wi

0101100
-126 0 *
Fa
0  1e-07 26 0

0101000
+128 0 +125 0 *
Ed
 1e-07 1 1 0
1  90 0 0 8
2  215 27 0 0 8
2  216 68 0 0 8
0

0101000
-131 0 +168 0 *
Wi

0101100
-167 0 -123 0 +130 0 +295 0 *
Fa
0  1e-07 27 0

0111000
+122 0 *
Ve
1.5e-07
-80 -14 8
0 0

0101101
*
Ed
 1.5e-07 1 1 0
1  91 0 0.5 4.5
2  217 28 1 0.5 4.5
2  218 29 0 0.5 4.5
0

0101000
+120 0 -292 0 *
Ed
 1e-07 1 1 0
1  92 0 0 16
2  219 28 0 0 16
2  220 58 0 0 16
0

0101000
+173 0 -120 2 *
Wi

0101100
-291 1 +119 0 +118 1 -171 1 *
Fa
0  1e-07 28 1

0101000
+117 0 *
Ve
1.5e-07
-76.5 -14 8
0 0

0101101
*
Ed
 1.5e-07 1 1 0
1  93 0 -5 -1
2  221 29 0 -5 -1
2  222 30 0 -5 -1
0

0101000
+290 0 -115 0 *
Ed
 1.5e-07 1 1 0
1  94 0 -7.95 -4.45
2  223 58 1 -7.95 -4.45
2  224 29 0 -7.95 -4.45
0

0101000
+115 0 -120 0 *
Wi

0101100
+114 0 -289 0 +119 0 +113 0 *
Fa
0  1e-07 29 0

0101000
+112 0 *
Ve
1.5e-07
-76.5 -21.25 8
0 0

0101101
*
Ed
 1e-07 1 1 0
1  95 0 1 5
2  225 30 0 1 5
2  226 31 0 1 5
0

0101000
+110 0 -288 0 *
Ed
 1.5e-07 1 1 0
1  96 0 4.375 11.625
2  227 58 1 4.375 11.625
2  228 30 0 4.375 11.625
0

0101000
+110 0 -115 0 *
Wi

0101100
-109 0 -287 0 -114 0 +108 0 *
Fa
0  1e-07 30 0

0101000
+107 0 *
Ve
1.5e-07
-53.5 -21.25 8
0 0

0101101
*
Ed
 1e-07 1 1 0
1  97 0 1 5
2  229 32 0 1 5
2  230 31 0 1 5
0

0101000
+105 0 -286 0 *
Ed
 1.5e-07 1 1 0
1  98 0 -24.75 -1.75
2  231 58 1 -24.75 -1.75
2  232 31 0 -24.75 -1.75
0

0101000
+105 0 -110 0 *
Wi

0101100
-104 0 -285 0 +109 0 +103 0 *
Fa
0  1e-07 31 0

0101000
+102 0 *
Ve
1.5e-07
-53.5 -13.75 8
0 0

0101101
*
Ed
 1e-07 1 1 0
1  99 0 1 5
2  233 32 0 1 5
2  234 33 0 1 5
0

0101000
+100 0 -284 0 *
Ed
 1.5e-07 1 1 0
1  100 0 4.375 11.875
2  235 58 1 4.375 11.875
2  236 32 0 4.375 11.875
0

0101000
+105 0 -100 0 *
Wi

0101100
-104 0 -283 0 +99 0 +98 0 *
Fa
0  1e-07 32 0

0101000
+97 0 *
Ve
1.5e-07
-66.4 -13.75 8
0 0

0101101
*
Ed
 1.5e-07 1 1 0
1  101 0 1 5
2  237 34 0 1 5
2  238 33 0 1 5
0

0101000
+95 0 -282 0 *
Ed
 1.5e-07 1 1 0
1  102 0 -24.75 -11.85
2  239 58 1 -24.75 -11.85
2  240 33 0 -24.75 -11.85
0

0101000
+100 0 -95 0 *
Wi

0101100
-99 0 -281 0 +94 0 +93 0 *
Fa
0  1e-07 33 0

0101000
+92 0 *
Ve
1.5e-07
-66.4 14 8
0 0

0101101
*
Ed
 1e-07 1 1 0
1  103 0 1 5
2  241 34 0 1 5
2  242 35 0 1 5
0

0101000
+90 0 -280 0 *
Ed
 1.5e-07 1 1 0
1  104 0 8.25 36
2  243 58 1 8.25 36
2  244 34 0 8.25 36
0

0101000
+95 0 -90 0 *
Wi

0101100
-94 0 -279 0 +89 0 +88 0 *
Fa
0  1e-07 34 0

0101000
+87 0 *
Ve
1.5e-07
-80 14 8
0 0

0101101
*
Ed
 1.5e-07 1 1 0
1  105 0 0.5 4.5
2  245 28 1 0.5 4.5
2  246 35 0 0.5 4.5
0

0101000
+85 0 -278 0 *
Ed
 1.5e-07 1 1 0
1  106 0 -18.05 -4.45
2  247 58 1 -18.05 -4.45
2  248 35 0 -18.05 -4.45
0

0101000
+90 0 -85 0 *
Wi

0101100
-89 0 -277 0 +84 0 +83 0 *
Fa
0  1e-07 35 0

0101000
+82 0 *
Ed
 1e-07 1 1 0
1  92 0 44 60
2  219 28 0 44 60
2  220 58 0 44 60
0

0101000
+85 2 -232 0 *
Wi

0101100
-276 1 +229 1 +80 1 -84 0 *
Fa
0  1e-07 28 1

0101000
+79 0 *
Ve
1e-07
35 -11 17
0 0

0101101
*
Ed
 1e-07 1 1 0
1  107 0 0 6.28318530717959
2  249 36 0 0 6.28318530717959
2  250 71 0 0 6.28318530717959
0

0101000
+77 0 -77 0 *
Ed
 1e-07 1 1 0
1  108 0 0 5
3  251 252CN 36 0 0 5
0

0101000
-77 0 +274 0 *
Wi

0101100
-76 0 +75 0 +273 0 -75 0 *
Fa
0  1e-07 36 0

0111000
+74 0 *
Ve
1e-07
57 -11 17
0 0

0101101
*
Ed
 1e-07 1 1 0
1  109 0 0 6.28318530717959
2  253 38 0 0 6.28318530717959
2  254 72 0 0 6.28318530717959
0

0101000
+72 0 -72 0 *
Ed
 1e-07 1 1 0
1  110 0 0 5
3  255 256CN 38 0 0 5
0

0101000
-72 0 +271 0 *
Wi

0101100
-71 0 +70 0 +270 0 -70 0 *
Fa
0  1e-07 38 0

0111000
+69 0 *
Wi

0101100
-266 0 -253 0 +248 0 +236 0 *
Fa
0  1e-07 40 0

0111000
+67 0 *
Ve
1e-07
35 11 17
0 0

0101101
*
Ed
 1e-07 1 1 0
1  111 0 0 6.28318530717959
2  257 42 0 0 6.28318530717959
2  258 73 0 0 6.28318530717959
0

0101000
+65 0 -65 0 *
Ed
 1e-07 1 1 0
1  112 0 0 5
3  259 260CN 42 0 0 5
0

0101000
-65 0 +262 0 *
Wi

0101100
-64 0 +63 0 +261 0 -63 0 *
Fa
0  1e-07 42 0

0111000
+62 0 *
Ve
1e-07
57 11 17
0 0

0101101
*
Ed
 1e-07 1 1 0
1  113 0 0 6.28318530717959
2  261 44 0 0 6.28318530717959
2  262 74 0 0 6.28318530717959
0

0101000
+60 0 -60 0 *
Ed
 1e-07 1 1 0
1  114 0 0 5
3  263 264CN 44 0 0 5
0

0101000
-60 0 +259 0 *
Wi

0101100
-59 0 +58 0 +258 0 -58 0 *
Fa
0  1e-07 44 0

0111000
+57 0 *
Ve
1e-07
-41 18 12
0 0

0101101
*
Ve
1e-07
9 18 12
0 0

0101101
*
Ed
 1e-07 1 1 0
1  115 0 3 53
2  265 50 0 3 53
2  266 2 0 3 53
2  267 3 1 3 53
0

0101000
+55 0 -54 0 *
Ed
 1e-07 1 1 0
1  116 0 0 10
2  268 51 0 0 10
2  269 75 0 0 10
2  270 50 0 0 10
0

0101000
-245 0 +54 0 *
Ed
 1e-07 1 1 0
1  117 0 0 10
2  271 54 0 0 10
2  272 76 0 0 10
2  273 50 0 0 10
0

0101000
-246 0 +55 0 *
Wi

0101100
-53 0 -52 0 +244 0 +51 0 *
Fa
0  1e-07 50 0

0101000
+50 0 *
Ve
1e-07
9 -18 12
0 0

0101101
*
Ed
 1e-07 1 1 0
1  118 0 0 10
2  274 51 0 0 10
2  275 77 0 0 10
2  276 53 0 0 10
0

0101000
-243 0 +48 0 *
Ed
 1e-07 1 1 0
1  119 0 0 36
2  277 51 0 0 36
2  278 78 0 0 36
2  279 3 1 0 36
0

0101000
-54 0 +48 0 *
Wi

0101100
-47 0 -242 0 +52 0 +46 0 *
Fa
0  1e-07 51 0

0111000
+45 0 *
Ve
1e-07
-41 -18 12
0 0

0101101
*
Ed
 1e-07 1 1 0
1  120 0 3 53
2  280 53 0 3 53
2  281 41 0 3 53
2  282 3 1 3 53
0

0101000
+43 0 -48 0 *
Ed
 1e-07 1 1 0
1  121 0 0 10
2  283 54 0 0 10
2  284 79 0 0 10
2  285 53 0 0 10
0

0101000
-241 0 +43 0 *
Wi

0101100
-42 0 -47 0 +240 0 +41 0 *
Fa
0  1e-07 53 0

0101000
+40 0 *
Ed
 1e-07 1 1 0
1  122 0 0 36
2  286 54 0 0 36
2  287 80 0 0 36
2  288 3 1 0 36
0

0101000
-55 0 +43 0 *
Wi

0101100
-41 0 -239 0 +51 0 +38 0 *
Fa
0  1e-07 54 0

0111000
+37 0 *
Wi

0101100
-118 1 +113 0 +108 0 +103 0 -98 0 -93 0 -88 0 -83 0 -80 1 -231 1 
+176 1 +172 1 *
Fa
0  1e-07 58 1

0101000
+35 0 *
Wi

0101100
-192 0 -223 0 +181 0 +187 0 *
Fa
0  1e-07 61 0

0111000
+33 0 *
Wi

0101100
-208 0 -221 0 +197 0 +203 0 *
Fa
0  1e-07 62 0

0111000
+31 0 *
Ed
 1e-07 1 1 0
1  123 0 1 9
3  289 290CN 63 0 1 9
0

0101000
+201 0 -217 0 *
Wi

0101100
-216 0 +29 0 +200 0 -29 0 *
Fa
0  1e-07 63 0

0101000
+28 0 *
Ed
 1e-07 1 1 0
1  124 0 1 9
3  291 292CN 64 0 1 9
0

0101000
+185 0 -214 0 *
Wi

0101100
-213 0 +26 0 +184 0 -26 0 *
Fa
0  1e-07 64 0

0101000
+25 0 *
Wi

0101100
-139 0 -145 0 +151 0 +165 0 *
Fa
0  1e-07 67 0

0111000
+23 0 *
Wi

0101100
-123 0 -129 0 +135 0 +163 0 *
Fa
0  1e-07 68 0

0111000
+21 0 *
Ed
 1e-07 1 1 0
1  125 0 1 9
3  293 294CN 69 0 1 9
0

0101000
+159 0 -127 0 *
Wi

0101100
-126 0 +19 0 +158 0 -19 0 *
Fa
0  1e-07 69 0

0101000
+18 0 *
Ed
 1e-07 1 1 0
1  126 0 1 9
3  295 296CN 70 0 1 9
0

0101000
+156 0 -143 0 *
Wi

0101100
-142 0 +16 0 +155 0 -16 0 *
Fa
0  1e-07 70 0

0101000
+15 0 *
Wi

0101100
+76 0 *
Fa
0  1e-07 71 0

0111000
+13 0 *
Wi

0101100
+71 0 *
Fa
0  1e-07 72 0

0111000
+11 0 *
Wi

0101100
+64 0 *
Fa
0  1e-07 73 0

0111000
+9 0 *
Wi

0101100
+59 0 *
Fa
0  1e-07 74 0

0111000
+7 0 *
Wi

0101100
-53 0 +46 0 +42 0 -38 0 *
Fa
0  1e-07 3 1

0101000
+5 0 *
Sh

0101100
+332 0 +256 0 +251 0 +237 0 +234 0 +211 0 -206 0 -198 0 +195 0 -190 0 
-182 0 +179 0 +174 1 +153 0 +148 0 +140 0 -137 0 +132 0 +124 0 -121 0 
-116 0 +111 0 +106 0 +101 0 -96 0 -91 0 -86 0 -81 0 -78 0 +73 0 
+68 0 -66 0 +61 0 +56 0 -49 0 -44 0 +39 0 +36 0 -34 0 +32 0 
+30 0 -27 0 -24 0 +22 0 +20 0 -17 0 -14 0 +12 0 +10 0 +8 0 
+6 0 +4 0 *
So

0100000
+3 0 *
Co

1100000
+2 0 *

+1 0 