DBRep_DrawableShape

CASCADE Topology V1, (c) Matra-Datavision
Locations 2
1
              1               0               0             -80 
              0               1               0             -28 
              0               0               1              24 
2  1 -1 0
Curve2ds 63
7 0 0  5 6 2  0.83650752921540683 -0.52359877559830026  0.824822331997767 -0.50532929786954617  0.81390747994302082 -0.48676419408332094  0.80372266998402964 -0.46793464663583872  0.79423058487901976 -0.4488679115871802  0.78539816339744828 -0.42958831980562462 
 0.85958308713321696 6 0.99591038800568066 6
2 16 150.5 1 0 -0 1 5.3619026473818039
1 19.5 0 0 1 
1 0 0 1 0 
8 -10.000000000000007 -9.5
1 9.5 107.5 -1 0 
8 -10.000000000000007 -9.5
1 -9.5 -5.5 -1 -0 
8 53.75 101.25
1 19 53.75 0 1 
8 53.75 101.25
1 -53.75 5.5 1 0 
1 0 -1.5707963267948966 1 0 
8 4.7123889803846897 6.2831853071795862
1 6.2831853071795862 6.9999999999999991 -1 -0 
8 4.7123889803846897 6.2831853071795862
1 0 -6.2831853071795862 0 1 
1 0 -0.4429110440736389 1 0 
2 43 10 1 0 0 -1 6.324555320336759
7 0 0  5 6 2  0.73428879757949117 -0.52359877559829882  0.74597399479713078 -0.50532929786954495  0.75688884685187219 -0.48676419408332272  0.76707365681087758 -0.46793464663583695  0.77656574191587679 -0.44886791158717998  0.78539816339744828 -0.42958831980562462 
 0.8595830871332184 6 0.99591038800568066 6
2 16 -4.5 1 0 -0 1 5.3619026473818039
1 0 -0.52359877559829893 1 0 
2 150.5 4.5 1 0 0 -1 6.0621778264910704
8 4.7123889803846897 6.2831853071795862
1 6.2831853071795862 153 -1 -0 
8 4.7123889803846897 6.2831853071795862
1 1.5707963267948966 -6.2831853071795862 0 1 
8 2.7499999999999947 53.750000000000007
1 107.5 -2.75 0 1 
8 2.7499999999999947 53.750000000000007
1 0.5 -2.75 0 -1 
1 19.5 0 0 1 
1 0 51 1 0 
7 0 0  5 6 2  0.66104316885068692 -0.6190828375143157  0.66998624932819995 -0.63522015400915677  0.67943958596008791 -0.65121716263717477  0.6894362863174992 -0.66706049648893817  0.70001362210852713 -0.68273489449186209  0.7112132396616796 -0.69822247336256105 
 2.3050851243743882 6 2.4073038560103033 6
2 150.5 46.5 0 -1 1 0 6.0621778264910704
1 19.5 0 0 -1 
1 155 0 0 1 
1 6.2831853071795862 110 -1 0 
2 -3 -10 0 1 -1 0 7
8 8.5 50.5
1 110 -1.5 0 1 
8 8.5 50.5
1 4 -1.5 0 -1 
1 0 110 1 0 
2 -3 -52 0 -1 1 0 7
1 0 0 0 -1 
1 0 0 0 1 
8 -10.000000000000007 -9.5
1 9.5 107.5 -1 0 
8 -10.000000000000007 -9.5
1 -9.5 -56.5 -1 -0 
8 104.90000000000001 153.00000059999999
1 0.44291104407363885 0 0 1 
8 104.90000000000001 153.00000059999999
1 -110 3.6754446796632401 1 0 
8 6.9999994000000001 49.0000006
1 0.44291104407363907 0 0 1 
8 6.9999994000000001 49.0000006
1 49.324555320336756 3 0 1 
1 0 49 1 0 
1 0 0 1 0 
1 153 0 0 1 
1 1.5707963267948966 0 0 1 
7 0 0  8 30 5  0.44291104407363907 0  0.44291104407363907 -0.08870168094460805  0.44717611139282099 -0.17740328663472837  0.4557079594114839 -0.26586620554780893  0.4688420183965718 -0.35384835346826549  0.48727631718043085 -0.4410711749346774  0.51216001499278718 -0.52713881029160348  0.54545368938438055 -0.6115073528578483  0.61358228052593944 -0.73380191664957428  0.63932302591172174 -0.7738570631041739  0.66855918929331892 -0.81305976330668273  0.7018614238659211 -0.85123072361602681  0.73993942097695253 -0.88813602494883526  0.78364600797056028 -0.92347401763129255  0.83402891433898985 -0.95682470856803614  0.92089922293903426 -1.0030577664766995  0.9517386119421154 -1.0178366310931311  0.98456765442373495 -1.0319156846561164  1.0194803737515485 -1.045219814194752  1.0565484785105852 -1.0576663821106607  1.0957995331180159 -1.0691664242091989  1.1371922090322919 -1.0796281632905671  1.2240042357572638 -1.098299612321356  1.2694237439735785 -1.1065093199538247  1.3167279534648202 -1.1135052598455495  1.3657051712736461 -1.1192037075728649  1.4160375908647964 -1.1235311644262751  1.4673111584117575 -1.1264339021510084  1.5190536795772085 -1.1278852827212578  1.5707963267948966 -1.1278852827212578 
 1.5707963267948966 9 2.3561944901923457 7 2.7488935718910699 7 2.9452431127404313 7 3.1415926535897931 9
2 43 52 0 -1 1 0 6.324555320336759
8 -53.75 -2.75
1 19 2.75 0 1 
8 -53.75 -2.75
1 47.5 2.75 0 -1 
7 0 0  5 6 2  0.5748859387892159 -0.69822247336255994  0.59409030639038007 -0.6833971774626133  0.61227323950081392 -0.66802256684250594  0.62946554379055097 -0.65214902773685601  0.64570816261838815 -0.63582221086161017  0.66104316885068692 -0.6190828375143157 
 5.2872749191739059 6 5.4236022200463676 6
2 16 -46.5 1 0 -0 1 5.3619026473818039
1 0 6.9999999999999991 1 0 
1 1.5707963267948966 0 0 1 
1 0 -0.69822247336256005 1 0 
2 16 150.5 0 1 1 -0 5.3619026473818039
8 53.75 101.25
1 19 53.75 0 1 
8 53.75 101.25
1 -53.75 56.5 1 0 
8 4.7123889803846897 6.2831853071795862
1 -4.7123889803846897 153 1 0 
8 4.7123889803846897 6.2831853071795862
1 1.5707963267948966 -6.2831853071795862 0 1 
1 0 49 1 0 
1 1.5707963267948966 0 0 1 
8 104.90000000000001 153.00000059999999
1 0.44291104407363885 0 0 1 
8 104.90000000000001 153.00000059999999
1 -110 58.324555320336756 1 0 
Curves 31
2 73 -25.5 39 -0 1 0 0 0 1 1 0 -0 5.3619026473818039
1 -77.5 -25.5 42.5 1 0 -0 
1 30 -25.5 32.5 -0 0 -1 
1 -23.75 -25.5 42 1 0 -0 
2 153 6.9999999999999991 15 0 1 0 1 0 0 0 0 -1 7
2 73 -21 42 0 0 -1 1 0 0 0 -1 0 6.324555320336759
2 77.5 -21 39 1 0 -0 0 0 1 0 -1 0 5.3619026473818039
2 73 -21 42.5 0 0 -1 1 0 0 0 -1 0 6.0621778264910704
2 153 6.9999999999999991 15 1 6.123233995736766e-17 -0 6.123233995736766e-17 -1 0 0 -0 -1 7
1 30 -28.25 42.5 -0 1 0 
1 -77.5 25.5 42.5 1 0 -0 
2 73 21 42.5 0 0 1 0 -1 0 1 0 -0 6.0621778264910704
1 77.5 -25.5 42.5 -0 1 0 
2 30 -21 39 1 0 0 0 -1 0 0 -0 -1 7
1 30 -29.5 46 -0 1 0 
2 30 21 39 1 0 -0 0 1 0 0 -0 1 7
1 30 -31 42 -0 1 0 
1 30 25.5 32.5 -0 0 -1 
1 -80 -27.32455532033676 42 1 0 -0 
1 79.324555320336756 -28 42 -0 1 0 
2 153 49 15 0 -1 -0 1 0 0 0 -0 1 7
1 153 0 22 -0 1 0 
2 73 21 42 0 0 1 0 -1 0 1 0 -0 6.324555320336759
1 77.5 -28.25 42 0 -1 0 
2 77.5 21 39 1 0 -0 0 0 1 0 -1 0 5.3619026473818039
1 0 6.9999999999999991 22 1 0 -0 
2 73 25.5 39 0 -1 -0 1 0 0 0 -0 1 5.3619026473818039
1 -23.75 25.5 42 1 0 -0 
2 153 49 15 1 0 -6.123233995736766e-17 6.123233995736766e-17 0 1 0 -1 0 7
1 0 49 22 1 0 -0 
1 -80 27.32455532033676 42 1 0 -0 
Polygon3D 0
PolygonOnTriangulations 0
Surfaces 12
1 -77.5 -25.5 23 -0 1 0 0 0 1 1 0 -0 
4 153 6.9999999999999991 15 -0 -0 -1 1 0 0 0 -1 0 7
1 -77.5 -25.5 42.5 0 0 1 1 0 -0 -0 1 0 
1 30 -31 42 1 0 -0 0 0 1 0 -1 0 
1 30 -31 42 0 0 1 1 0 -0 -0 1 0 
2 153 0 15 -0 1 0 1 0 -0 0 -0 1 7
1 77.5 -25.5 23 1 0 -0 0 0 1 0 -1 0 
2 0 6.9999999999999991 15 1 0 -0 0 -1 0 -0 0 1 7
1 -77.5 25.5 23 -0 1 0 0 0 1 1 0 -0 
4 153 49 15 0 -1 -0 1 0 0 0 -0 1 7
1 0 0 22 0 0 1 1 0 -0 -0 1 0 
2 0 49 15 1 0 -0 0 1 0 0 -0 1 7
Triangulations 0

TShapes 88
Ve
1.00000007105427e-07
77.062019202318 -25.5 42.5
0 0

0101101
*
Ve
1.5e-07
77.4440972086578 -25.5 42
0 0

0101101
*
Ed
 1e-07 1 1 0
1  1 0 0.859583087133217 0.977010428729374
2  1 2 1 0.859583087133217 0.977010428729374
2  2 1 0 0.859583087133217 0.977010428729374
0

0101000
+88 0 -87 0 *
Ve
1.50000007105427e-07
30 -25.5 42.5
0 0

0101101
*
Ed
 1e-07 1 1 0
1  2 0 107.5 154.562019202318
2  3 1 0 107.5 154.562019202318
2  4 3 0 107.5 154.562019202318
0

0101000
+85 0 -88 0 *
Ve
1.5e-07
30 -25.5 42
0 0

0101101
*
Ed
 1.5e-07 1 1 0
1  3 0 -10 -9.5
2  5 1 0 -10 -9.5
2  6 4 0 -10 -9.5
0

0101000
+85 0 -83 0 *
Ed
 1.5e-07 1 1 0
1  4 0 53.75 101.194097208658
2  7 1 0 53.75 101.194097208658
2  8 5 0 53.75 101.194097208658
0

0101000
+83 0 -87 0 *
Wi

0101100
+86 0 +84 0 -82 0 -81 0 *
Fa
0  1e-07 1 0

0101000
+80 0 *
Ve
1e-07
153 7 22
0 0

0101101
*
Ed
 1e-07 1 1 1
2  9 2 0 0 1.5707963267949
0

0101000
+78 0 -78 0 *
Ve
1.00000014210855e-07
79.3245553203368 -21 42
0 0

0101101
*
Ed
 1e-07 1 1 0
1  5 0 4.71238898038469 5.84027426310595
2  10 6 0 4.71238898038469 5.84027426310595
2  11 2 0 4.71238898038469 5.84027426310595
4 G1 6 0 2 0
0

0101000
+78 0 -76 2 *
Ve
1.5e-07
77.5 -25.4440972086578 42
0 0

0101101
*
Ed
 1e-07 1 1 0
1  6 0 0 0.779148000625586
2  12 2 1 0 0.779148000625586
2  13 5 0 0 0.779148000625586
0

0101000
+76 0 -74 0 *
Ve
1e-07
77.5 -25.062019202318 42.5
0 0

0101101
*
Ed
 1e-07 1 1 0
1  7 0 0.859583087133218 0.977010428729374
2  14 2 1 0.859583087133218 0.977010428729374
2  15 7 0 0.859583087133218 0.977010428729374
0

0101000
+72 0 -74 0 *
Ed
 1e-07 1 1 0
1  8 0 0.734288797579491 0.836507529215407
2  16 2 1 0.734288797579491 0.836507529215407
2  17 3 0 0.734288797579491 0.836507529215407
0

0101000
+72 0 -88 0 *
Ve
1e-07
73 -27.3245553203368 42
0 0

0101101
*
Ed
 1e-07 1 1 0
1  6 0 0.79164832616931 1.5707963267949
2  12 2 1 0.79164832616931 1.5707963267949
2  13 5 0 0.79164832616931 1.5707963267949
0

0101000
+87 0 -69 0 *
Ed
 1e-07 1 1 0
1  9 0 4.71238898038469 5.84027426310595
2  18 8 0 4.71238898038469 5.84027426310595
2  19 2 0 4.71238898038469 5.84027426310595
4 G1 8 0 2 0
0

0101000
+78 0 -69 2 *
Wi

0101100
+77 1 -75 1 -73 0 +71 0 -70 0 -86 0 -68 0 +67 1 *
Fa
0  1e-07 2 1

0101000
+66 0 *
Ve
1.50000007105427e-07
30 25.5 42.5
0 0

0101101
*
Ed
 1.5e-07 1 1 0
1  10 0 2.74999999999999 53.75
2  20 3 0 2.74999999999999 53.75
2  21 4 0 2.74999999999999 53.75
0

0101000
+85 0 -64 0 *
Ve
1.00000007105427e-07
77.062019202318 25.5 42.5
0 0

0101101
*
Ed
 1e-07 1 1 0
1  11 0 107.5 154.562019202318
2  22 9 0 107.5 154.562019202318
2  23 3 0 107.5 154.562019202318
0

0101000
+64 0 -62 0 *
Ve
1e-07
77.5 25.062019202318 42.5
0 0

0101101
*
Ed
 1e-07 1 1 0
1  12 0 2.30508512437439 2.4073038560103
2  24 10 1 2.30508512437439 2.4073038560103
2  25 3 0 2.30508512437439 2.4073038560103
0

0101000
+60 0 -62 0 *
Ed
 1e-07 1 1 0
1  13 0 0.43798079768202 50.562019202318
2  26 7 0 0.43798079768202 50.562019202318
2  27 3 0 0.43798079768202 50.562019202318
0

0101000
+72 0 -60 0 *
Wi

0101100
-63 0 -61 0 +59 0 +58 0 -70 0 +84 0 *
Fa
0  1e-07 3 0

0101000
+57 0 *
Ve
1.5e-07
30 -21 46
0 0

0101101
*
Ve
1e-07
30 -27.3245553203368 42
0 0

0101101
*
Ed
 1e-07 1 1 0
1  14 0 4.71238898038469 5.84027426310595
2  28 8 1 4.71238898038469 5.84027426310595
2  29 4 0 4.71238898038469 5.84027426310595
0

0101000
+55 0 -54 0 *
Ve
1.5e-07
30 21 46
0 0

0101101
*
Ed
 1.5e-07 1 1 0
1  15 0 8.5 50.5
2  30 11 1 8.5 50.5
2  31 4 0 8.5 50.5
0

0101000
+55 0 -52 0 *
Ve
1.00000003552714e-07
30 27.3245553203368 42
0 0

0101101
*
Ed
 1e-07 1 1 0
1  16 0 0.442911044073639 1.5707963267949
2  32 12 1 0.442911044073639 1.5707963267949
2  33 4 0 0.442911044073639 1.5707963267949
0

0101000
+50 0 -52 0 *
Ve
1.5e-07
30 25.5 42
0 0

0101101
*
Ed
 1e-07 1 1 0
1  17 0 56.5 58.3245553203368
2  34 4 0 56.5 58.3245553203368
2  35 5 0 56.5 58.3245553203368
0

0101000
+48 0 -50 0 *
Ed
 1.5e-07 1 1 0
1  18 0 -10 -9.5
2  36 9 0 -10 -9.5
2  37 4 0 -10 -9.5
0

0101000
+64 0 -48 0 *
Ed
 1e-07 1 1 0
1  17 0 3.67544467966324 5.5
2  34 4 0 3.67544467966324 5.5
2  35 5 0 3.67544467966324 5.5
0

0101000
+54 0 -83 0 *
Wi

0101100
+53 0 -51 0 +49 0 +47 0 +46 0 +63 0 -82 0 +45 0 *
Fa
0  1e-07 4 0

0101000
+44 0 *
Ed
 1e-07 1 1 0
1  19 0 110 153
2  38 8 1 110 153
2  39 5 0 110 153
0

0101000
+54 0 -69 0 *
Wi

0101100
-45 0 -81 0 -68 0 +42 0 *
Fa
0  1e-07 5 0

0101000
+41 0 *
Ve
1.17820650604803e-07
79.3245553203368 21 42
0 0

0101101
*
Ed
 1e-07 1 1 0
1  20 0 7 49
2  40 6 1 7 49
2  41 5 0 7 49
0

0101000
+76 0 -39 0 *
Ve
1e-07
153 49 22
0 0

0101101
*
Ed
 1e-07 1 1 0
1  21 0 0.442911044073639 1.5707963267949
2  42 6 0 0.442911044073639 1.5707963267949
2  43 10 0 0.442911044073639 1.5707963267949
4 G1 6 0 10 0
0

0101000
+39 2 -37 0 *
Ed
 1e-07 1 1 0
1  22 0 7 49
2  44 11 0 7 49
2  45 6 0 7 49
4 G1 11 0 6 0
0

0101000
+78 0 -37 0 *
Wi

0101100
-75 1 -38 0 -36 1 +35 1 *
Fa
0  1e-07 6 1

0101000
+34 0 *
Ve
1.5e-07
77.5 25.4440972086578 42
0 0

0101101
*
Ed
 1.17820650604803e-07 1 1 0
1  23 0 1.5707963267949 2.34994432742048
2  46 10 1 1.5707963267949 2.34994432742048
2  47 5 0 1.5707963267949 2.34994432742048
0

0101000
+39 0 -32 0 *
Ed
 1.5e-07 1 1 0
1  24 0 -53.6940972086578 -2.80590279134221
2  48 7 0 -53.6940972086578 -2.80590279134221
2  49 5 0 -53.6940972086578 -2.80590279134221
0

0101000
+32 0 -74 0 *
Wi

0101100
+31 0 +38 0 -73 0 +30 0 *
Fa
0  1e-07 5 0

0101000
+29 0 *
Ed
 1e-07 1 1 0
1  25 0 5.30617487845021 5.42360222004637
2  50 10 1 5.30617487845021 5.42360222004637
2  51 7 0 5.30617487845021 5.42360222004637
0

0101000
+32 0 -60 0 *
Wi

0101100
+71 0 -58 0 +27 0 -30 0 *
Fa
0  1e-07 7 0

0101000
+26 0 *
Ed
 1e-07 1 1 0
1  26 0 110 153
2  52 11 0 110 153
2  53 8 0 110 153
4 G1 11 0 8 0
0

0101000
+55 2 -78 0 *
Wi

0101100
-53 0 -42 0 +67 1 +24 1 *
Fa
0  1e-07 8 1

0101000
+23 0 *
Ve
1.5e-07
77.4440972086578 25.5 42
0 0

0101101
*
Ed
 1e-07 1 1 0
1  27 0 0.593785898065522 0.71121323966168
2  54 10 1 0.593785898065522 0.71121323966168
2  55 9 0 0.593785898065522 0.71121323966168
0

0101000
+21 0 -62 0 *
Ed
 1.5e-07 1 1 0
1  28 0 53.75 101.194097208658
2  56 9 0 53.75 101.194097208658
2  57 5 0 53.75 101.194097208658
0

0101000
+48 0 -21 0 *
Wi

0101100
-20 0 +61 0 -46 0 -19 0 *
Fa
0  1e-07 9 0

0101000
+18 0 *
Ve
1.17820650604803e-07
73 27.3245553203368 42
0 0

0101101
*
Ed
 1.17820650604803e-07 1 1 0
1  23 0 2.36244465296421 3.14159265358979
2  46 10 1 2.36244465296421 3.14159265358979
2  47 5 0 2.36244465296421 3.14159265358979
0

0101000
+21 0 -16 0 *
Ed
 1e-07 1 1 0
1  29 0 5.15530002445833 6.28318530717959
2  58 12 0 5.15530002445833 6.28318530717959
2  59 10 0 5.15530002445833 6.28318530717959
4 G1 12 0 10 0
0

0101000
+16 2 -37 0 *
Wi

0101100
+15 0 -20 0 +59 0 +27 0 +31 0 -36 1 +14 1 *
Fa
0  1e-07 10 1

0101000
+13 0 *
Ed
 1e-07 1 1 0
1  30 0 110 153
2  60 11 0 110 153
2  61 12 0 110 153
4 G1 11 0 12 0
0

0101000
+52 2 -37 0 *
Wi

0101100
-11 1 +35 1 +24 1 -51 0 *
Fa
0  1e-07 11 1

0101000
+10 0 *
Ed
 1e-07 1 1 0
1  31 0 110 153
2  62 12 1 110 153
2  63 5 0 110 153
0

0101000
+50 0 -16 0 *
Wi

0101100
-14 1 +11 1 +49 0 -8 0 *
Fa
0  1e-07 12 1

0101000
+7 0 *
Wi

0101100
-47 0 -8 0 +15 0 +19 0 *
Fa
0  1e-07 5 0

0101000
+5 0 *
Sh

0101100
+79 0 +65 0 -56 0 -43 0 -40 0 -33 0 -28 0 -25 0 -22 0 -17 0 
+12 0 +9 0 +6 0 -4 0 *
So

0100000
+3 0 *
Co

1100000
+2 0 *

+1 0 