DBRep_DrawableShape

CASCADE Topology V1, (c) Matra-Datavision
Locations 0
Curve2ds 13
1 0 25 1 0 
2 0 0 1 0 -0 1 10
1 6.2831853071795862 -0 0 1 
1 0 -0 0 1 
1 0 0 1 0 
2 0 0 1 0 -0 1 10
1 0 9 1 0 
2 0 0 1 0 -0 1 1
2 0 0 1 0 -0 1 1
1 6.2831853071795862 -0 0 1 
1 0 -0 0 1 
1 0 0 1 0 
2 0 0 1 0 -0 1 1
Curves 6
2 -77.650000000000006 12.5 18 0 1 0 0 -0 1 1 0 -0 10
1 -77.650000000000006 -12.5 28 0 1 0 
2 -77.650000000000006 -12.5 18 0 1 0 0 -0 1 1 0 -0 10
2 -77.650000000000006 -12.5 18 0 1 0 0 -0 1 1 0 -0 1
1 -77.650000000000006 -21.5 19 0 1 0 
2 -77.650000000000006 -21.5 18 0 1 0 0 -0 1 1 0 -0 1
Polygon3D 0
PolygonOnTriangulations 0
Surfaces 6
2 -77.650000000000006 -12.5 18 0 1 0 0 -0 1 1 0 -0 10
1 -77.650000000000006 12.5 18 0 1 0 0 -0 1 1 0 -0 
1 -77.650000000000006 -12.5 18 0 1 0 0 -0 1 1 0 -0 
2 -77.650000000000006 -21.5 18 0 1 0 0 -0 1 1 0 -0 1
1 -77.650000000000006 -12.5 18 0 1 0 0 -0 1 1 0 -0 
1 -77.650000000000006 -21.5 18 0 1 0 0 -0 1 1 0 -0 
Triangulations 0

TShapes 24
Ve
1e-07
-77.65 12.5 28
0 0

0101101
*
Ed
 1e-07 1 1 0
1  1 0 0 6.28318530717959
2  1 1 0 0 6.28318530717959
2  2 2 0 0 6.28318530717959
0

0101000
+24 0 -24 0 *
Ve
1e-07
-77.65 -12.5 28
0 0

0101101
*
Ed
 1e-07 1 1 0
1  2 0 0 25
3  3 4CN 1 0 0 25
0

0101000
-24 0 +22 0 *
Ed
 1e-07 1 1 0
1  3 0 0 6.28318530717959
2  5 1 0 0 6.28318530717959
2  6 3 0 0 6.28318530717959
0

0101000
+22 0 -22 0 *
Wi

0101100
-23 0 +21 0 +20 0 -21 0 *
Fa
0  1e-07 1 0

0111000
+19 0 *
Wi

0101100
+23 0 *
Fa
0  1e-07 2 0

0111000
+17 0 *
Wi

0101100
+20 0 *
Ve
1e-07
-77.65 -12.5 19
0 0

0101101
*
Ed
 1e-07 1 1 0
1  4 0 0 6.28318530717959
2  7 4 0 0 6.28318530717959
2  8 5 0 0 6.28318530717959
2  9 3 0 0 6.28318530717959
0

0101000
+14 0 -14 0 *
Wi

0101100
-13 0 *
Fa
0  1e-07 3 0

0101000
+15 0 +12 0 *
Ve
1e-07
-77.65 -21.5 19
0 0

0101101
*
Ed
 1e-07 1 1 0
1  5 0 0 9
3  10 11CN 4 0 0 9
0

0101000
-14 0 +10 0 *
Ed
 1e-07 1 1 0
1  6 0 0 6.28318530717959
2  12 4 0 0 6.28318530717959
2  13 6 0 0 6.28318530717959
0

0101000
+10 0 -10 0 *
Wi

0101100
-13 0 +9 0 +8 0 -9 0 *
Fa
0  1e-07 4 0

0111000
+7 0 *
Wi

0101100
-8 0 *
Fa
0  1e-07 6 0

0111000
-5 0 *
Sh

0101100
+18 0 +16 0 -11 0 +6 0 -4 0 *
So

0100000
+3 0 *
Co

1100000
+2 0 *

+1 0 