DBRep_DrawableShape

CASCADE Topology V1, (c) Matra-Datavision
Locations 0
Curve2ds 50
1 0 0 1 0 
1 0 0 1 0 
1 18 0 0 -1 
1 0 0 0 1 
1 0 -8 1 0 
1 0 0 1 0 
1 0 0 0 -1 
1 0 0 0 1 
1 0 0 0 1 
1 0 0 1 0 
2 6 12 1 0 -0 1 10.15
1 0 1 1 0 
2 6 12 1 0 -0 1 10.15
1 0 1 1 0 
2 6 24.650000000000006 1 0 -0 1 4.5
1 0 1 1 0 
1 0 0 1 0 
1 0 24 1 0 
1 18 0 0 1 
1 0 0 1 0 
1 18 0 0 1 
1 0 8 1 0 
1 18 0 0 -1 
1 24 0 0 1 
1 0 0 0 1 
1 0 8 1 0 
2 6 12 1 0 -0 1 10.15
1 0 9 1 0 
2 6 12 1 0 -0 1 10.15
1 0 9 1 0 
2 6 24.650000000000006 1 0 -0 1 4.5
1 0 9 1 0 
1 0 -8 1 0 
1 0 24 1 0 
8 0.20000000000000018 9.8000000000000007
1 3.8132729372477598 -1 0 1 
8 0.20000000000000018 9.8000000000000007
1 4.0799261487177825 0 0 1 
1 6.2831853071795862 -0 0 1 
1 0 -0 0 1 
8 0.99999940000000009 9.0000005999999999
1 1.23907084319553 0 0 1 
8 0.99999940000000009 9.0000005999999999
1 5.5374333488794258 0 0 1 
8 0.20000000000000018 9.8000000000000007
1 10.452808102759427 1 0 -1 
8 0.20000000000000018 9.8000000000000007
1 6.1382338011763533 0 0 1 
8 0.20000000000000018 9.8000000000000007
1 20.18672706275224 -1 0 1 
8 0.20000000000000018 9.8000000000000007
1 2.2032591584618038 0 0 1 
8 0.99999940000000009 9.0000005999999999
1 1.9025218103942636 0 0 1 
8 0.99999940000000009 9.0000005999999999
1 3.8873446118899531 0 0 1 
1 0 0 0 -1 
1 24 0 0 1 
8 0.20000000000000018 9.8000000000000007
1 1.5471918972405749 1 0 -1 
8 0.20000000000000018 9.8000000000000007
1 3.286544159593026 0 0 1 
Curves 25
1 -89.650000000000006 4 12 0 0 1 
1 -89.650000000000006 4 30 -0 1 0 
1 -89.650000000000006 12 12 0 0 1 
1 -89.650000000000006 4 12 -0 1 0 
1 -89.650000000000006 4 12 1 0 -0 
2 -77.650000000000006 4 18 0 1 0 0 -0 1 1 0 -0 10.15
2 -77.650000000000006 4 18 0 1 0 0 -0 1 1 0 -0 10.15
2 -65 4 18 0 1 0 0 -0 1 1 0 -0 4.5
1 -65.650000000000006 4 12 0 0 1 
1 -89.650000000000006 4 30 1 0 -0 
1 -89.650000000000006 12 30 1 0 -0 
1 -65.650000000000006 4 30 -0 1 0 
1 -89.650000000000006 12 12 1 0 -0 
2 -77.650000000000006 12 18 0 1 0 0 -0 1 1 0 -0 10.15
2 -77.650000000000006 12 18 0 1 0 0 -0 1 1 0 -0 10.15
2 -65 12 18 0 1 0 0 -0 1 1 0 -0 4.5
1 -65.650000000000006 12 12 0 0 1 
1 -85.836727062752246 3 12 0 1 0 
1 -77.650000000000006 3 28.149999999999999 0 1 0 
1 -68.053359683794469 3 21.305600496336258 0 1 0 
1 -65.650000000000006 3 22.452808102759427 0 1 0 
1 -69.463272937247766 3 12 0 1 0 
1 -68.053359683794469 3 14.694399503663741 0 1 0 
1 -65.650000000000006 4 12 -0 1 0 
1 -65.650000000000006 3 13.547191897240575 0 1 0 
Polygon3D 0
PolygonOnTriangulations 0
Surfaces 8
1 -89.650000000000006 4 12 1 0 -0 0 0 1 0 -1 0 
1 -89.650000000000006 4 12 -0 1 0 0 0 1 1 0 -0 
1 -89.650000000000006 4 30 0 0 1 1 0 -0 -0 1 0 
1 -89.650000000000006 12 12 -0 1 0 0 0 1 1 0 -0 
1 -89.650000000000006 4 12 0 0 1 1 0 -0 -0 1 0 
2 -77.650000000000006 3 18 0 1 0 0 -0 1 1 0 -0 10.15
2 -65 3 18 0 1 0 0 -0 1 1 0 -0 4.5
1 -65.650000000000006 4 12 1 0 -0 0 0 1 0 -1 0 
Triangulations 0

TShapes 90
Ve
1e-07
-89.65 4 30
0 0

0101101
*
Ve
1e-07
-89.65 4 12
0 0

0101101
*
Ed
 1e-07 1 1 0
1  1 0 0 18
2  1 1 0 0 18
2  2 2 0 0 18
0

0101000
-90 0 +89 0 *
Ve
1e-07
-89.65 12 30
0 0

0101101
*
Ed
 1e-07 1 1 0
1  2 0 0 8
2  3 1 0 0 8
2  4 3 0 0 8
0

0101000
-87 0 +90 0 *
Ve
1e-07
-89.65 12 12
0 0

0101101
*
Ed
 1e-07 1 1 0
1  3 0 0 18
2  5 1 0 0 18
2  6 4 0 0 18
0

0101000
-87 0 +85 0 *
Ed
 1e-07 1 1 0
1  4 0 0 8
2  7 1 0 0 8
2  8 5 0 0 8
0

0101000
-85 0 +89 0 *
Wi

0101100
-88 0 -86 0 +84 0 +83 0 *
Fa
0  1e-07 1 0

0111000
+82 0 *
Ve
1.00000056843419e-07
-85.8367270627523 4 12
0 0

0101101
*
Ed
 1e-07 1 1 0
1  5 0 0 3.8132729372477
2  9 2 0 0 3.8132729372477
2  10 5 0 0 3.8132729372477
0

0101000
+89 0 -80 0 *
Ve
1e-07
-77.65 4 28.15
0 0

0101101
*
Ed
 1e-07 1 1 0
1  6 0 4.07992614871779 6.28318530717959
2  11 2 0 4.07992614871779 6.28318530717959
2  12 6 0 4.07992614871779 6.28318530717959
0

0101000
+80 0 -78 0 *
Ve
1.00000093254505e-07
-68.0533596837944 4 21.3056004963362
0 0

0101101
*
Ed
 1e-07 1 1 0
1  7 0 0 1.23907084319554
2  13 2 0 0 1.23907084319554
2  14 6 0 0 1.23907084319554
0

0101000
+78 0 -76 0 *
Ve
1.00000063948846e-07
-65.65 4 22.4528081027594
0 0

0101101
*
Ed
 1e-07 1 1 0
1  8 0 5.53743334887942 6.13823380117635
2  15 2 0 5.53743334887942 6.13823380117635
2  16 7 0 5.53743334887942 6.13823380117635
0

0101000
+76 0 -74 0 *
Ve
1e-07
-65.65 4 30
0 0

0101101
*
Ed
 1e-07 1 1 0
1  9 0 10.4528081027594 18
2  17 8 0 10.4528081027594 18
2  18 2 0 10.4528081027594 18
0

0101000
+74 0 -72 0 *
Ed
 1e-07 1 1 0
1  10 0 0 24
2  19 2 0 0 24
2  20 3 0 0 24
0

0101000
-72 0 +90 0 *
Wi

0101100
-79 0 -77 0 -75 0 -73 0 -71 0 +70 0 +88 0 *
Fa
0  1e-07 2 0

0101000
+69 0 *
Ve
1e-07
-65.65 12 30
0 0

0101101
*
Ed
 1e-07 1 1 0
1  11 0 0 24
2  21 4 0 0 24
2  22 3 0 0 24
0

0101000
-67 0 +87 0 *
Ed
 1e-07 1 1 0
1  12 0 0 8
2  23 8 0 0 8
2  24 3 0 0 8
0

0101000
-67 0 +72 0 *
Wi

0101100
-86 0 -66 0 +65 0 +70 0 *
Fa
0  1e-07 3 0

0111000
+64 0 *
Ve
1.00000056843419e-07
-85.8367270627523 12 12
0 0

0101101
*
Ed
 1e-07 1 1 0
1  13 0 0 3.8132729372477
2  25 4 0 0 3.8132729372477
2  26 5 0 0 3.8132729372477
0

0101000
+85 0 -62 0 *
Ve
1e-07
-77.65 12 28.15
0 0

0101101
*
Ed
 1e-07 1 1 0
1  14 0 4.07992614871779 6.28318530717959
2  27 4 0 4.07992614871779 6.28318530717959
2  28 6 0 4.07992614871779 6.28318530717959
0

0101000
+62 0 -60 0 *
Ve
1.00000093254505e-07
-68.0533596837944 12 21.3056004963362
0 0

0101101
*
Ed
 1e-07 1 1 0
1  15 0 0 1.23907084319554
2  29 4 0 0 1.23907084319554
2  30 6 0 0 1.23907084319554
0

0101000
+60 0 -58 0 *
Ve
1.00000063948846e-07
-65.65 12 22.4528081027594
0 0

0101101
*
Ed
 1e-07 1 1 0
1  16 0 5.53743334887942 6.13823380117635
2  31 4 0 5.53743334887942 6.13823380117635
2  32 7 0 5.53743334887942 6.13823380117635
0

0101000
+58 0 -56 0 *
Ed
 1e-07 1 1 0
1  17 0 10.4528081027594 18
2  33 8 0 10.4528081027594 18
2  34 4 0 10.4528081027594 18
0

0101000
+56 0 -67 0 *
Wi

0101100
-61 0 -59 0 -57 0 -55 0 -54 0 +66 0 +84 0 *
Fa
0  1e-07 4 0

0101000
+53 0 *
Ed
 1e-07 1 1 0
1  18 0 1 9
2  35 5 0 1 9
2  36 6 0 1 9
0

0101000
+80 0 -62 0 *
Wi

0101100
-61 0 +51 0 +79 0 -83 0 *
Fa
0  1e-07 5 0

0101000
+50 0 *
Ed
 1e-07 1 1 0
1  19 0 1 9
3  37 38CN 6 0 1 9
0

0101000
+78 0 -60 0 *
Wi

0101100
+48 0 +77 0 -51 0 -59 0 *
Fa
0  1e-07 6 0

0101000
+47 0 *
Ed
 1e-07 1 1 0
1  20 0 1 9
2  39 6 0 1 9
2  40 7 0 1 9
0

0101000
+76 0 -58 0 *
Wi

0101100
-57 0 +45 0 +75 0 -48 0 *
Fa
0  1e-07 6 0

0101000
+44 0 *
Ed
 1e-07 1 1 0
1  21 0 1 9
2  41 8 0 1 9
2  42 7 0 1 9
0

0101000
+74 0 -56 0 *
Wi

0101100
-45 0 -55 0 +42 0 +73 0 *
Fa
0  1e-07 7 0

0101000
+41 0 *
Wi

0101100
-71 0 -65 0 +54 0 +42 0 *
Fa
0  1e-07 8 0

0101000
+39 0 *
Sh

0101100
-81 0 -68 0 +63 0 +52 0 -49 0 -46 0 -43 0 -40 0 +38 0 *
So

0100000
+37 0 *
Ve
1.00000098343453e-07
-68.0533596837944 4 14.6943995036638
0 0

0101101
*
Ve
1.00000071054274e-07
-69.4632729372477 4 12
0 0

0101101
*
Ed
 1e-07 1 1 0
1  7 0 1.90252181039425 2.2032591584618
2  13 2 0 1.90252181039425 2.2032591584618
2  14 6 0 1.90252181039425 2.2032591584618
0

0101000
+35 0 -34 0 *
Ve
1e-07
-65.65 4 12
0 0

0101101
*
Ed
 1e-07 1 1 0
1  5 0 20.1867270627523 24
2  9 2 0 20.1867270627523 24
2  10 5 0 20.1867270627523 24
0

0101000
+34 0 -32 0 *
Ve
1.00000063948846e-07
-65.65 4 13.5471918972406
0 0

0101101
*
Ed
 1e-07 1 1 0
1  9 0 0 1.54719189724064
2  17 8 0 0 1.54719189724064
2  18 2 0 0 1.54719189724064
0

0101000
+32 0 -30 0 *
Ed
 1e-07 1 1 0
1  8 0 3.28654415959303 3.88734461188996
2  15 2 0 3.28654415959303 3.88734461188996
2  16 7 0 3.28654415959303 3.88734461188996
0

0101000
+30 0 -35 0 *
Wi

0101100
-33 0 -31 0 -29 0 -28 0 *
Fa
0  1e-07 2 0

0101000
+27 0 *
Ve
1.00000098343453e-07
-68.0533596837944 12 14.6943995036638
0 0

0101101
*
Ve
1.00000071054274e-07
-69.4632729372477 12 12
0 0

0101101
*
Ed
 1e-07 1 1 0
1  15 0 1.90252181039425 2.2032591584618
2  29 4 0 1.90252181039425 2.2032591584618
2  30 6 0 1.90252181039425 2.2032591584618
0

0101000
+25 0 -24 0 *
Ed
 1e-07 1 1 0
1  22 0 1 9
2  43 5 0 1 9
2  44 6 0 1 9
0

0101000
+34 0 -24 0 *
Ed
 1e-07 1 1 0
1  23 0 1 9
2  45 6 0 1 9
2  46 7 0 1 9
0

0101000
+35 0 -25 0 *
Wi

0101100
-23 0 +22 0 +33 0 -21 0 *
Fa
0  1e-07 6 0

0101000
+20 0 *
Ve
1e-07
-65.65 12 12
0 0

0101101
*
Ed
 1e-07 1 1 0
1  13 0 20.1867270627523 24
2  25 4 0 20.1867270627523 24
2  26 5 0 20.1867270627523 24
0

0101000
+24 0 -18 0 *
Ed
 1e-07 1 1 0
1  24 0 0 8
2  47 8 0 0 8
2  48 5 0 0 8
0

0101000
-18 0 +32 0 *
Wi

0101100
-17 0 +16 0 +31 0 -22 0 *
Fa
0  1e-07 5 0

0101000
+15 0 *
Ve
1.00000063948846e-07
-65.65 12 13.5471918972406
0 0

0101101
*
Ed
 1e-07 1 1 0
1  25 0 1 9
2  49 8 0 1 9
2  50 7 0 1 9
0

0101000
+30 0 -13 0 *
Ed
 1e-07 1 1 0
1  17 0 0 1.54719189724064
2  33 8 0 0 1.54719189724064
2  34 4 0 0 1.54719189724064
0

0101000
+18 0 -13 0 *
Wi

0101100
-29 0 -12 0 +11 0 +16 0 *
Fa
0  1e-07 8 0

0101000
+10 0 *
Ed
 1e-07 1 1 0
1  16 0 3.28654415959303 3.88734461188996
2  31 4 0 3.28654415959303 3.88734461188996
2  32 7 0 3.28654415959303 3.88734461188996
0

0101000
+13 0 -25 0 *
Wi

0101100
-12 0 -8 0 +21 0 +28 0 *
Fa
0  1e-07 7 0

0101000
+7 0 *
Wi

0101100
-23 0 -17 0 -11 0 -8 0 *
Fa
0  1e-07 4 0

0101000
+5 0 *
Sh

0101100
-26 0 -19 0 -14 0 +9 0 -6 0 +4 0 *
So

0100000
+3 0 *
Co

1100000
+36 0 +2 0 *

+1 0 