DBRep_DrawableShape

CASCADE Topology V1, (c) Matra-Datavision
Locations 4
1
              1               0               0               0 
              0 1.11022302462516e-16               1               0 
              0              -1 1.11022302462516e-16               0 
1
              1               0               0              65 
              0               1               0              32 
              0               0               1              18 
2  1 1 2 1 0
2  1 -1 0
Curve2ds 12
1 0 12 1 0 
2 0 0 1 0 -0 1 18
1 6.2831853071795862 -0 0 1 
1 0 -0 0 1 
1 0 0 1 0 
2 0 0 1 0 -0 1 18
2 0 0 1 0 -0 1 2.1499999999999999
1 0 13 1 0 
2 0 0 1 0 -0 1 2.1499999999999999
1 0 1 1 0 
1 6.2831853071795862 -0 0 1 
1 0 -0 0 1 
Curves 6
2 0 0 12 0 0 1 1 0 -0 -0 1 0 18
1 18 -4.4087284769304716e-15 0 0 0 1 
2 0 0 0 0 0 1 1 0 -0 -0 1 0 18
2 0 0 12 0 0 1 1 0 -0 -0 1 0 2.1499999999999999
2 0 0 0 0 0 1 1 0 -0 -0 1 0 2.1499999999999999
1 2.1499999999999999 -5.2659812363336185e-16 -1 0 0 1 
Polygon3D 0
PolygonOnTriangulations 0
Surfaces 4
2 0 0 0 0 0 1 1 0 -0 -0 1 0 18
1 0 0 12 0 0 1 1 0 -0 -0 1 0 
1 0 0 0 0 0 1 1 0 -0 -0 1 0 
2 0 0 -1 0 0 1 1 0 -0 -0 1 0 2.1499999999999999
Triangulations 0

TShapes 23
Ve
1e-07
18 12 5.74099610648066e-15
0 0

0101101
*
Ed
 1e-07 1 1 0
1  1 0 0 6.28318530717959
2  1 1 0 0 6.28318530717959
2  2 2 0 0 6.28318530717959
0

0101000
+23 4 -23 4 *
Ve
1e-07
18 -4.89467186440881e-31 4.40872847693047e-15
0 0

0101101
*
Ed
 1e-07 1 1 0
1  2 0 0 12
3  3 4CN 1 0 0 12
0

0101000
-23 4 +21 4 *
Ed
 1e-07 1 1 0
1  3 0 0 6.28318530717959
2  5 1 0 0 6.28318530717959
2  6 3 0 0 6.28318530717959
0

0101000
+21 4 -21 4 *
Wi

0101100
-22 0 +20 0 +19 0 -20 0 *
Fa
0  1e-07 1 0

0111000
+18 0 *
Wi

0101100
+22 0 *
Ve
1.00000000526598e-07
2.15 12 1.85886575318355e-15
0 0

0101101
*
Ed
 1e-07 1 1 0
1  4 0 0 6.28318530717959
2  7 2 0 0 6.28318530717959
2  8 4 0 0 6.28318530717959
0

0101000
+15 4 -15 4 *
Wi

0101100
-14 0 *
Fa
0  1e-07 2 0

0101000
+16 0 +13 0 *
Wi

0101100
+19 0 *
Ve
1.00000000526598e-07
2.15 -5.84641361582163e-32 5.26598123633362e-16
0 0

0101101
*
Ed
 1e-07 1 1 0
1  5 0 0 6.28318530717959
2  9 3 0 0 6.28318530717959
2  10 4 0 0 6.28318530717959
0

0101000
+10 4 -10 4 *
Wi

0101100
-9 0 *
Fa
0  1e-07 3 0

0101000
+11 0 +8 0 *
Ed
 1e-07 1 1 0
1  6 0 1 13
3  11 12CN 4 0 1 13
0

0101000
+10 4 -15 4 *
Wi

0101100
-14 0 +6 0 +9 0 -6 0 *
Fa
0  1e-07 4 0

0101000
+5 0 *
Sh

0101100
+17 0 +12 0 -7 0 -4 0 *
So

0100000
+3 0 *
Co

1100000
+2 0 *

+1 3 