  0
SECTION
  2
HEADER
  9
$ACADVER
  1
AC1009
  9
$INSUNITS
 70
     4
  0
ENDSEC
  0
SECTION
  2
ENTITIES
  0
LINE
  8
0
 10
0.000
 20
30.000
 30
0.0
 11
30.000
 21
30.000
 31
0.0
  0
LINE
  8
0
 10
0.000
 20
-30.000
 30
0.0
 11
30.000
 21
-30.000
 31
0.0
  0
LINE
  8
0
 10
0.000
 20
-30.000
 30
0.0
 11
0.000
 21
30.000
 31
0.0
  0
LINE
  8
0
 10
30.000
 20
40.000
 30
0.0
 11
100.000
 21
40.000
 31
0.0
  0
LINE
  8
0
 10
30.000
 20
-40.000
 30
0.0
 11
100.000
 21
-40.000
 31
0.0
  0
LINE
  8
0
 10
30.000
 20
-40.000
 30
0.0
 11
30.000
 21
40.000
 31
0.0
  0
LINE
  8
0
 10
100.000
 20
45.000
 30
0.0
 11
120.000
 21
45.000
 31
0.0
  0
LINE
  8
0
 10
100.000
 20
-45.000
 30
0.0
 11
120.000
 21
-45.000
 31
0.0
  0
LINE
  8
0
 10
100.000
 20
-45.000
 30
0.0
 11
100.000
 21
45.000
 31
0.0
  0
LINE
  8
0
 10
120.000
 20
45.000
 30
0.0
 11
1045.000
 21
45.000
 31
0.0
  0
LINE
  8
0
 10
120.000
 20
-45.000
 30
0.0
 11
1045.000
 21
-45.000
 31
0.0
  0
LINE
  8
0
 10
120.000
 20
-45.000
 30
0.0
 11
120.000
 21
45.000
 31
0.0
  0
LINE
  8
0
 10
1045.000
 20
40.000
 30
0.0
 11
1115.000
 21
40.000
 31
0.0
  0
LINE
  8
0
 10
1045.000
 20
-40.000
 30
0.0
 11
1115.000
 21
-40.000
 31
0.0
  0
LINE
  8
0
 10
1045.000
 20
-40.000
 30
0.0
 11
1045.000
 21
40.000
 31
0.0
  0
LINE
  8
0
 10
1115.000
 20
30.000
 30
0.0
 11
1145.000
 21
30.000
 31
0.0
  0
LINE
  8
0
 10
1115.000
 20
-30.000
 30
0.0
 11
1145.000
 21
-30.000
 31
0.0
  0
LINE
  8
0
 10
1115.000
 20
-30.000
 30
0.0
 11
1115.000
 21
30.000
 31
0.0
  0
LINE
  8
0
 10
1145.000
 20
-45.000
 30
0.0
 11
1145.000
 21
45.000
 31
0.0
  0
LINE
  8
0
 10
120.000
 20
37.000
 30
0.0
 11
190.000
 21
37.000
 31
0.0
  0
LINE
  8
0
 10
190.000
 20
37.000
 30
0.0
 11
190.000
 21
57.000
 31
0.0
  0
LINE
  8
0
 10
190.000
 20
57.000
 30
0.0
 11
120.000
 21
57.000
 31
0.0
  0
LINE
  8
0
 10
120.000
 20
57.000
 30
0.0
 11
120.000
 21
37.000
 31
0.0
  0
TEXT
  8
DIM
 10
572.500
 20
70.000
 30
0.0
 40
15.000
  1
L=1145mm
  0
TEXT
  8
DIM
 10
572.500
 20
-70.000
 30
0.0
 40
15.000
  1
%%c90 (shaft main dia)
  0
TEXT
  8
DIM
 10
155.000
 20
57.000
 30
0.0
 40
10.000
  1
Keyway 20x70
  0
TEXT
  8
DIM
 10
20.000
 20
60.000
 30
0.0
 40
10.000
  1
%%c60 (thread M60x2 R)
  0
TEXT
  8
DIM
 10
1125.000
 20
60.000
 30
0.0
 40
10.000
  1
%%c60 (thread M60x2 L)
  0
TEXT
  8
DIM
 10
80.000
 20
60.000
 30
0.0
 40
10.000
  1
%%c80 (bearing seat)
  0
TEXT
  8
DIM
 10
572.500
 20
-90.000
 30
0.0
 40
15.000
  1
45钢 / Material: 45 Steel
  0
ENDSEC
  0
EOF
